<svg width="97" height="98" viewBox="0 0 97 98" fill="none" xmlns="http://www.w3.org/2000/svg">
<path fill-rule="evenodd" clip-rule="evenodd" d="M48.4777 97.5496C75.0715 97.5496 96.6287 75.8481 96.6287 49.0763C96.6287 22.3045 75.0715 0.603054 48.4777 0.603054C21.8839 0.603054 0.32666 22.3045 0.32666 49.0763C0.32666 75.8481 21.8839 97.5496 48.4777 97.5496ZM62.923 39.3817C62.923 43.2385 61.4011 46.9373 58.6921 49.6644C55.9831 52.3916 52.3088 53.9237 48.4777 53.9237C44.6466 53.9237 40.9723 52.3916 38.2633 49.6644C35.5543 46.9373 34.0324 43.2385 34.0324 39.3817C34.0324 35.5249 35.5543 31.8261 38.2633 29.0989C40.9723 26.3718 44.6466 24.8397 48.4777 24.8397C52.3088 24.8397 55.9831 26.3718 58.6921 29.0989C61.4011 31.8261 62.923 35.5249 62.923 39.3817ZM19.5871 73.313C22.9481 68.7948 27.3094 65.1278 32.3245 62.6035C37.3397 60.0791 42.8706 58.7668 48.4777 58.771C54.0848 58.7668 59.6157 60.0791 64.6309 62.6035C69.646 65.1278 74.0073 68.7948 77.3683 73.313C74.0073 77.8312 69.646 81.4981 64.6309 84.0225C59.6157 86.5469 54.0848 87.8591 48.4777 87.855C42.8706 87.8591 37.3397 86.5469 32.3245 84.0225C27.3094 81.4981 22.9481 77.8312 19.5871 73.313Z" fill="white"/>
</svg>
