<?xml version="1.0" encoding="UTF-8"?>
<svg xmlns="http://www.w3.org/2000/svg" version="1.1" viewBox="0 0 500 500">
  <defs>
    <style>
      .cls-1 {
        fill: #fae1a3;
      }

      .cls-1, .cls-2, .cls-3, .cls-4, .cls-5, .cls-6, .cls-7, .cls-8, .cls-9, .cls-10, .cls-11, .cls-12, .cls-13, .cls-14, .cls-15, .cls-16, .cls-17, .cls-18, .cls-19, .cls-20, .cls-21, .cls-22, .cls-23, .cls-24, .cls-25, .cls-26, .cls-27, .cls-28, .cls-29, .cls-30, .cls-31, .cls-32, .cls-33, .cls-34, .cls-35, .cls-36, .cls-37, .cls-38, .cls-39, .cls-40, .cls-41, .cls-42, .cls-43, .cls-44, .cls-45, .cls-46, .cls-47, .cls-48, .cls-49, .cls-50, .cls-51, .cls-52, .cls-53, .cls-54, .cls-55, .cls-56, .cls-57, .cls-58, .cls-59, .cls-60, .cls-61, .cls-62, .cls-63, .cls-64, .cls-65, .cls-66, .cls-67, .cls-68, .cls-69, .cls-70, .cls-71, .cls-72, .cls-73, .cls-74, .cls-75, .cls-76, .cls-77, .cls-78, .cls-79, .cls-80, .cls-81, .cls-82, .cls-83, .cls-84, .cls-85, .cls-86, .cls-87, .cls-88, .cls-89, .cls-90, .cls-91, .cls-92, .cls-93, .cls-94, .cls-95, .cls-96, .cls-97, .cls-98, .cls-99, .cls-100, .cls-101, .cls-102, .cls-103, .cls-104, .cls-105, .cls-106, .cls-107, .cls-108, .cls-109, .cls-110, .cls-111, .cls-112, .cls-113, .cls-114, .cls-115, .cls-116, .cls-117, .cls-118, .cls-119, .cls-120, .cls-121, .cls-122, .cls-123, .cls-124, .cls-125, .cls-126, .cls-127, .cls-128, .cls-129, .cls-130, .cls-131, .cls-132, .cls-133, .cls-134, .cls-135, .cls-136, .cls-137, .cls-138, .cls-139, .cls-140, .cls-141, .cls-142, .cls-143, .cls-144, .cls-145, .cls-146, .cls-147, .cls-148, .cls-149, .cls-150, .cls-151 {
        stroke-width: 0px;
      }

      .cls-2 {
        fill: #ce4722;
      }

      .cls-3 {
        fill: #fafbf9;
      }

      .cls-4 {
        fill: #25202c;
      }

      .cls-5 {
        fill: #fbbd0e;
      }

      .cls-6 {
        fill: #1f172f;
      }

      .cls-7 {
        fill: #292830;
      }

      .cls-8 {
        fill: #c4462c;
      }

      .cls-9 {
        fill: #fdeda4;
      }

      .cls-10 {
        fill: #fefbe9;
      }

      .cls-11 {
        fill: #093e5d;
      }

      .cls-12 {
        fill: #dd3a15;
      }

      .cls-13 {
        fill: #582f1d;
      }

      .cls-14 {
        fill: #fdfbef;
      }

      .cls-15 {
        fill: #d26c16;
      }

      .cls-16 {
        fill: #883a34;
      }

      .cls-17 {
        fill: #fcbf0b;
      }

      .cls-18 {
        fill: #eeedd4;
      }

      .cls-19 {
        fill: #fcfaf1;
      }

      .cls-20 {
        fill: #1b2b46;
      }

      .cls-21 {
        fill: #391e1e;
      }

      .cls-22 {
        fill: #222848;
      }

      .cls-23 {
        fill: #a82e19;
      }

      .cls-24 {
        fill: #c4492c;
      }

      .cls-25 {
        fill: #81cac8;
      }

      .cls-26 {
        fill: #a3281b;
      }

      .cls-27 {
        fill: #4c3148;
      }

      .cls-28 {
        fill: #1194a2;
      }

      .cls-29 {
        fill: #d93f17;
      }

      .cls-30 {
        fill: #2e383a;
      }

      .cls-31 {
        fill: #f3e6db;
      }

      .cls-32 {
        fill: #932b20;
      }

      .cls-33 {
        fill: #189ca9;
      }

      .cls-34 {
        fill: #1296a5;
      }

      .cls-35 {
        fill: #dc3f15;
      }

      .cls-36 {
        fill: #10637b;
      }

      .cls-37 {
        fill: #1695a4;
      }

      .cls-38 {
        fill: #93d0d1;
      }

      .cls-39 {
        fill: #06617c;
      }

      .cls-40 {
        fill: #ca4427;
      }

      .cls-41 {
        fill: #1d2745;
      }

      .cls-42 {
        fill: #a12718;
      }

      .cls-43 {
        fill: #166578;
      }

      .cls-44 {
        fill: #a18f85;
      }

      .cls-45 {
        fill: #1097a4;
      }

      .cls-46 {
        fill: #de3d15;
      }

      .cls-47 {
        fill: #1499a5;
      }

      .cls-48 {
        fill: #ea7217;
      }

      .cls-49 {
        fill: #eeded7;
      }

      .cls-50 {
        fill: #db3e16;
      }

      .cls-51 {
        fill: #f9f8f3;
      }

      .cls-52 {
        fill: #db3e15;
      }

      .cls-53 {
        fill: #fdea95;
      }

      .cls-54 {
        fill: #fcfbf8;
      }

      .cls-55 {
        fill: #fdfcf7;
      }

      .cls-56 {
        fill: #1c1f1e;
      }

      .cls-57 {
        fill: #1e2541;
      }

      .cls-58 {
        fill: #fabe14;
      }

      .cls-59 {
        fill: #ffdf70;
      }

      .cls-60 {
        fill: #f59c22;
      }

      .cls-61 {
        fill: #080c12;
      }

      .cls-62 {
        fill: #fab817;
      }

      .cls-63 {
        fill: #da4016;
      }

      .cls-64 {
        fill: #085d74;
      }

      .cls-65 {
        fill: #fcbf0c;
      }

      .cls-66 {
        fill: #7cc8c8;
      }

      .cls-67 {
        fill: #ca401c;
      }

      .cls-68 {
        fill: #1498a7;
      }

      .cls-69 {
        fill: #c43f24;
      }

      .cls-70 {
        fill: #edbc29;
      }

      .cls-71 {
        fill: #87cbc9;
      }

      .cls-72 {
        fill: #fbbb13;
      }

      .cls-73 {
        fill: #1e243d;
      }

      .cls-74 {
        fill: #f5b321;
      }

      .cls-75 {
        fill: #ba341c;
      }

      .cls-76 {
        fill: #1b2541;
      }

      .cls-77 {
        fill: #f6b21f;
      }

      .cls-78 {
        fill: #1d2138;
      }

      .cls-79 {
        fill: #19233d;
      }

      .cls-80 {
        fill: #25253b;
      }

      .cls-81 {
        fill: #1595a1;
      }

      .cls-82 {
        fill: #f8be17;
      }

      .cls-83 {
        fill: #1c2f4a;
      }

      .cls-84 {
        fill: #dc3d17;
      }

      .cls-85 {
        fill: #fcbe09;
      }

      .cls-86 {
        fill: #155771;
      }

      .cls-87 {
        fill: #04667e;
      }

      .cls-88 {
        fill: #fbfcf8;
      }

      .cls-89 {
        fill: #7bc6c7;
      }

      .cls-90 {
        fill: #c64c23;
      }

      .cls-91 {
        fill: #85cacd;
      }

      .cls-92 {
        fill: #eaf6f9;
      }

      .cls-93 {
        fill: #7bc8c9;
      }

      .cls-94 {
        fill: #76c6c7;
      }

      .cls-95 {
        fill: #159ca6;
      }

      .cls-96 {
        fill: #cb4525;
      }

      .cls-97 {
        fill: #fefdf9;
      }

      .cls-98 {
        fill: #fbbc0f;
      }

      .cls-99 {
        fill: #f9ba1d;
      }

      .cls-100 {
        fill: #1e1a2c;
      }

      .cls-101 {
        fill: #7fc9ca;
      }

      .cls-102 {
        fill: #252122;
      }

      .cls-103 {
        fill: #f8bc69;
      }

      .cls-104 {
        fill: #f9b916;
      }

      .cls-105 {
        fill: #fbbf0f;
      }

      .cls-106 {
        fill: #b4391f;
      }

      .cls-107 {
        fill: #2c2641;
      }

      .cls-108 {
        fill: #f8b717;
      }

      .cls-109 {
        fill: #d15b1c;
      }

      .cls-110 {
        fill: #362420;
      }

      .cls-111 {
        fill: #f4bc25;
      }

      .cls-112 {
        fill: #fdfbe6;
      }

      .cls-113 {
        fill: #7bc8c8;
      }

      .cls-114 {
        fill: #2e2f46;
      }

      .cls-115 {
        fill: #fbf0dd;
      }

      .cls-116 {
        fill: #3f282d;
      }

      .cls-117 {
        fill: #ef9518;
      }

      .cls-118 {
        fill: #155b74;
      }

      .cls-119 {
        fill: #b15039;
      }

      .cls-120 {
        fill: #287c89;
      }

      .cls-121 {
        fill: #199ca8;
      }

      .cls-122 {
        fill: #51324c;
      }

      .cls-123 {
        fill: #211b2c;
      }

      .cls-124 {
        fill: #d63618;
      }

      .cls-125 {
        fill: #81c9c8;
      }

      .cls-126 {
        fill: #b5371e;
      }

      .cls-127 {
        fill: #fdeb94;
      }

      .cls-128 {
        fill: #f9be15;
      }

      .cls-129 {
        fill: #c16327;
      }

      .cls-130 {
        fill: #1997a3;
      }

      .cls-152, .cls-131 {
        display: none;
      }

      .cls-131 {
        fill: #353535;
      }

      .cls-132 {
        fill: #7fc9c9;
      }

      .cls-133 {
        fill: #cd721a;
      }

      .cls-134 {
        fill: #f7c35c;
      }

      .cls-135 {
        fill: #fcfae5;
      }

      .cls-136 {
        fill: #1b233e;
      }

      .cls-137 {
        fill: #1a2440;
      }

      .cls-138 {
        fill: #7cc8c9;
      }

      .cls-139 {
        fill: #26252b;
      }

      .cls-140 {
        fill: #1c223d;
      }

      .cls-141 {
        fill: #45a4a4;
      }

      .cls-142 {
        fill: #c44f19;
      }

      .cls-143 {
        fill: #75c6c7;
      }

      .cls-144 {
        fill: #e1512a;
      }

      .cls-145 {
        fill: #0b0e14;
      }

      .cls-146 {
        fill: #fcfbf5;
      }

      .cls-147 {
        fill: #19243e;
      }

      .cls-148 {
        fill: #cc541b;
      }

      .cls-149 {
        fill: #391820;
      }

      .cls-150 {
        fill: #ae361b;
      }

      .cls-151 {
        fill: #fce9d5;
      }
    </style>
  </defs>
  <g id="Camada_2" data-name="Camada 2">
    <rect class="cls-131" y="-2.64" width="500" height="505.68"/>
    <g id="Camada_3" data-name="Camada 3">
      <path class="cls-61" d="M94.58,188.5c37.78-.97,75.22,5.07,112.45,13.08,11.72,2.52,23.48,4.86,35.29,6.88,9.51,1.62,18.89-.38,28.12-2.45,24.51-5.49,49.05-10.74,73.99-13.9,28.13-3.57,56.35-4.5,84.68-3.16,19.92.94,39.74,2.81,59.51,5.39,7.15.93,8.65,2.67,8.68,9.82.02,6.93.01,13.87.07,20.8.03,4.08-1.2,6.7-5.69,8.01-11.34,3.32-15.81,9.98-16.27,22.23-.6,16.09-1.07,32.19-4.99,47.97-7.26,29.17-28.46,47.3-58.52,50.01-23.49,2.11-46.9,1.66-70.23-1.77-28.31-4.16-47.14-20.55-59.07-45.92-5.97-12.68-9.97-25.98-13.61-39.45-1.69-6.26-3.76-12.42-8.66-17.16-8.79-8.5-21.94-6.98-28.32,3.44-4.27,6.98-5.71,14.99-8.01,22.68-5.26,17.55-12.13,34.25-23.4,49-13.23,17.33-31.16,25.47-52.13,28.31-20.15,2.73-40.32,2.73-60.53.82-29.6-2.8-51.29-22.46-57.54-51.91-3.16-14.9-3.42-30.01-4.1-45.11-.16-3.55-.49-7.01-1.7-10.38-2.3-6.44-6.84-10.1-13.47-11.45-7.74-1.57-8.41-2.46-8.43-10.43-.02-6.79-.07-13.58-.06-20.38,0-5.69,1.92-8.18,7.39-8.99,16.36-2.41,32.82-3.97,49.31-5.15,11.57-.83,23.17-1.2,35.25-.84ZM50.9,274.13c24.05-20.7,47.58-40.94,71.63-61.65-4.73-.33-8.4-.66-12.06-.82-12-.5-24.01-1.31-35.97.59-14.02,2.22-23.03,10.52-23.49,22.67-.48,12.82-.11,25.68-.11,39.2ZM360.16,212.23c-.1-.27-.21-.55-.31-.82-3.64.28-7.29.53-10.93.84-12.66,1.07-25.36,1.92-37.58,5.82-10.42,3.32-17.89,9.95-18.93,21.02-1,10.71-.22,21.58-.22,33.01,22.91-20.18,45.44-40.02,67.97-59.87Z"/>
      <path class="cls-61" d="M251.66,159.59c-53.35,0-106.7,0-160.04,0-2.97,0-5.92.07-8.87.66-6.13,1.24-10.6,4.55-12.9,10.39-.64,1.61-1.09,2.56-3.08,2.68-8.32.51-16.66.93-24.9,2.33-2.39.41-2.8-.61-2.8-2.75.05-22.07-.31-44.16.08-66.22.35-19.51,16.49-34.69,36.88-35.26,9.61-.27,19.24.03,28.87-.11,2.5-.04,3.02.83,3.05,3.14.1,7.49-.58,15,.58,22.46,1.88,12.09,13.6,20.93,26.84,20.19,11.48-.64,22.31-11.55,22.62-23.02.18-6.5.16-13.02-.08-19.52-.1-2.75.85-3.27,3.37-3.26,19.67.09,39.34.09,59.01-.03,2.97-.02,3.78.85,3.83,3.81.14,7.61-.95,15.28.83,22.82,2.94,12.5,15.14,20.68,28.53,19.21,11.24-1.24,21.4-12.87,21.54-24.75.07-5.94.17-11.89-.04-17.83-.1-2.71.8-3.27,3.35-3.26,20.38.1,40.75.1,61.13,0,2.67-.01,3.66.55,3.59,3.46-.18,7.07-.56,14.21.23,21.2,1.51,13.29,12.91,22.04,26.58,21.19,12.21-.76,22.71-11.94,23.01-24.67.15-6.08.07-12.17.03-18.25-.01-1.72.03-2.97,2.39-2.89,12.29.38,24.65-.9,36.89.68,18.07,2.34,31.68,17.3,31.97,35.51.36,22.07.09,44.15.22,66.22.02,2.72-1.05,2.97-3.29,2.66-7.84-1.07-15.65-2.44-23.59-2.43-1.92,0-2.72-.94-3.47-2.45-4.15-8.31-10.9-11.99-20.18-11.97-54.06.1-108.11.05-162.17.05Z"/>
      <path class="cls-145" d="M39.06,350.76c8.14,7.76,17.08,12.09,26.67,15.13,2.58.82,1.98,2.72,1.98,4.46.03,17.55.35,35.1-.12,52.64-.22,8.31,4.59,13.84,13.97,13.82,111.37-.25,222.75-.2,334.12-.23,2.97,0,5.94.07,8.91.04,6.44-.07,9.59-3.15,9.59-9.66-.02-14.43-.16-28.87-.24-43.3-.03-4.67.06-9.34-.09-14.01-.06-1.95.38-3.11,2.43-3.66,10.26-2.75,19.17-8.04,27.2-14.88,1.41.84.74,2.1.74,3.07.05,24.77.13,49.53.01,74.3-.11,22.73-18.76,41.16-41.47,41.16-113.64,0-227.27-.01-340.91-.04-20.31,0-36.65-12-41.42-30.34-.67-2.58-1.29-5.27-1.3-7.91-.1-26.45-.06-52.9-.06-80.57Z"/>
      <path class="cls-145" d="M264.73,67.98c0,7.5.1,15-.03,22.5-.13,7.31-5.4,13.43-12.34,14.64-6.45,1.13-13.1-2.72-15.7-8.94-.97-2.32-.92-4.71-.95-7.09-.18-14.29-.34-28.58-.35-42.87,0-10.31,5.24-15.9,14.55-15.85,8.93.05,14.8,6.31,14.87,15.96.05,7.22.01,14.43.01,21.65h-.05Z"/>
      <path class="cls-145" d="M353.14,67.31c0-7.34-.06-14.69.02-22.03.08-8.38,6.17-14.7,14.16-14.84,8.59-.15,15.32,5.94,15.39,14.54.13,14.82.06,29.66-.23,44.48-.19,9.5-6.64,15.95-15.17,15.8-8.12-.14-14.05-7-14.09-16.34-.03-7.2,0-14.4,0-21.61h-.07Z"/>
      <path class="cls-61" d="M119.5,67.9c0-7.63-.07-15.26.02-22.88.11-8.86,5.68-14.55,14.09-14.57,8.54-.03,14.9,6.26,14.93,14.96.05,14.83.04,29.67-.04,44.5-.04,8.57-6.66,15.29-14.78,15.3-7.13,0-14.84-7.1-14.29-15.27.49-7.31.1-14.68.1-22.03h-.03Z"/>
      <path class="cls-61" d="M141.12,381.42c0,1.97,1.59,3.56,3.56,3.56h20.09c1.97,0,3.56-1.59,3.56-3.56v-20.09c0-.18-.03-.36-.05-.54-9-.31-17.92-.66-26.76-1.05-.24.48-.39,1.02-.39,1.59v20.09Z"/>
      <path class="cls-61" d="M194.01,384.98h20.09c1.97,0,3.56-1.59,3.56-3.56v-19.39c-9.15-.14-18.22-.34-27.21-.57v19.96c0,1.97,1.59,3.56,3.56,3.56Z"/>
      <path class="cls-61" d="M243.34,384.98h20.09c1.97,0,3.56-1.59,3.56-3.56v-19.08c-4.15.01-8.31.02-12.49.01-4.93,0-9.83-.04-14.72-.07v19.14c0,1.97,1.59,3.56,3.56,3.56Z"/>
      <path class="cls-61" d="M292.66,384.98h20.09c1.97,0,3.56-1.59,3.56-3.56v-19.68c-8.99.19-18.07.34-27.21.45v19.24c0,1.97,1.59,3.56,3.56,3.56Z"/>
      <path class="cls-61" d="M338.43,381.42c0,1.97,1.59,3.56,3.56,3.56h20.09c1.97,0,3.56-1.59,3.56-3.56v-20.09c0-.39-.08-.76-.2-1.12-8.92.36-17.92.68-27,.95,0,.06-.02.11-.02.16v20.09Z"/>
      <path class="cls-61" d="M414.97,361.32c0-1.65-1.12-3.02-2.64-3.42-7.88.46-15.82.89-23.84,1.28-.45.6-.73,1.33-.73,2.14v20.09c0,1.97,1.59,3.56,3.56,3.56h7.49c6.9-7.99,12.17-16.01,16.16-23.06v-.59Z"/>
      <path class="cls-61" d="M168.33,400.15c0-1.97-1.59-3.56-3.56-3.56h-20.09c-1.97,0-3.56,1.59-3.56,3.56v16.35c6.52,1.98,15.1,3.87,26.77,5.42.27-.5.44-1.07.44-1.68v-20.09Z"/>
      <rect class="cls-61" x="190.45" y="396.59" width="27.21" height="27.21" rx="3.56" ry="3.56"/>
      <rect class="cls-61" x="239.78" y="396.59" width="27.21" height="27.21" rx="3.56" ry="3.56"/>
      <path class="cls-61" d="M312.75,423.8c.74,0,1.43-.23,2-.61-2.26.22-4.61.42-7.05.61h5.06Z"/>
      <path class="cls-61" d="M316.31,420.24v-20.09c0-1.97-1.59-3.56-3.56-3.56h-20.09c-1.97,0-3.56,1.59-3.56,3.56v20.09c0,1.97,1.59,3.56,3.56,3.56h15.04c2.45-.19,4.79-.4,7.05-.61.94-.64,1.56-1.72,1.56-2.95Z"/>
      <path class="cls-61" d="M362.08,396.59h-20.09c-1.97,0-3.56,1.59-3.56,3.56v19.89c13.39-2.42,21.55-5.31,27.21-8.08v-11.81c0-1.97-1.59-3.56-3.56-3.56Z"/>
      <path class="cls-61" d="M91.8,361.26c0-1.65,1.12-3.02,2.64-3.42,7.88.46,15.82.89,23.84,1.28.45.6.73,1.33.73,2.14v20.09c0,1.97-1.59,3.56-3.56,3.56h-7.49c-6.9-7.99-12.17-16.01-16.16-23.06v-.59Z"/>
    </g>
  </g>
  <g id="Camada_1" data-name="Camada 1" class="cls-152">
    <path class="cls-17" d="M397.13,250.27c-1.23,8.27-4.19,16-7.4,23.66-.91,2.17-2.44,2.8-4.7,2.79-15.95-.06-31.89-.06-47.84.02-2.58.01-4.33-1.01-6.02-2.84-4.27-4.64-8.71-9.13-13.08-13.67-8.34-8.66-18.15-11.11-29.52-7-.57.21-1.27.05-1.9.06-1-1.77-.02-3.45.23-5.16,2.63-5.48,3.9-11.64,8.17-16.3.59-.29,1.22-.49,1.87-.57q8.68-1.04,9.37-9.62c.04-.5.19-.96.41-1.41,1.08-.91,2.4-1.04,3.71-1.19,3.72-.28,4.69-2.18,3.92-5.76-1.16-5.46-.9-11.08-.54-16.6.19-2.92-.18-4.95-3.08-5.89-4.1-1.33-4.16-4.64-4.22-8.07-.06-3.6.7-6.6,4.53-7.97,1.4-.5,2.71-1.27,3.92-2.16,5.37-3.92,7.04-10.43,4.07-15.84-3.25-5.93-9.97-8.48-16.18-6.15-5.92,2.22-9.14,8.09-7.89,14.41,1.37,6.93.74,7.84-6.49,7.71-4.25-.07-8.64,1.02-12.75-1.02-3.78-10.87-3.78-10.91-15.69-10.84-2.67.02-5.49-.53-8.98,1.21,5.32,1.73,9.78.79,14.14,1.05,5.81.35,7.41,2.09,7.23,8.14-2.96,3.35-2.21,7.46-2.26,11.39-.07,5.41.74,10.82-4.47,14.98-2.58,2.06-1.37,4.36,2.44,5.96,1.11.24,2,.73,2.2,1.98-.23,6.64-.15,13.29-.13,19.94,0,3.26-.75,6.26-2.52,8.98-2.82,4.32-5.15,8.92-7.6,13.45-3.61,6.65-6.96,6.69-10.98.15-.44-.71-.78-1.46-.99-2.27.14-3.21-1.34-5.54-3.97-7.25-6.48-3.85-9.04-10.94-13.43-16.5-8.46-10.72-19.34-15.88-32.73-16.38q-4.87-.18-8.16-2.76c-5.03,4.63-6.05,12.29-12.11,16.16-2.04.48-3.54-.13-4.36-2.14,3.21-8.03,6.02-16.34,13.96-21.27,1-.62,2-1.2,2.13-2.53.03-.48.07-.95.08-1.43.63-4.14-.85-5.98-5.32-6.18-9.31-.42-16.89-4.54-22.37-12.15-1.32-1.83-2.36-2.33-4.4-.97-4.72,3.15-9.66,2.98-14.6.37-.74-.66-1.78-1.18-2.18-2.01-3.22-6.65-8.98-6.49-15.16-6.3-10.65.33-21.32,0-31.98.18-3.58.06-4.74-.82-3.78-4.54,5.56-21.57,14.43-41.59,28.93-58.6,25.67-30.11,58.38-48,97.56-53.49,34.53-4.84,67.31,1.01,98,17.79,1.02.56,1.96,1.25,2.97,1.82,3.52,1.98,4.01,3.93,1.13,7.35-5.51,6.53-8.09,14.47-8.86,22.94-.26,2.79-1.02,4.31-4.15,5.05-10.51,2.46-17.63,9.09-21.14,19.26-1.08,3.14-2.79,4.09-5.84,4.07-3.91-.02-7.13,1.76-9.36,4.93-2.75,3.91-.91,7.92,3.86,8.09,5.98.21,11.97-.1,17.96-.18,2.38-1.61,5.11-1.15,7.73-1.25,18.75-.69,37.45,1.11,56.19,1.02,7.13-.01,14.26-.07,21.39.02,2.27.03,4.72-.32,6.47,1.75,6.53,13.86,11.93,28.08,14.98,43.19,2.88,14.29,3.31,28.67,2.79,43.14-.1,2.82-.26,5.64-.39,8.46-1.35,2.61-3.88,2.14-6.13,2.27-2.35.13-4.65.31-6.55,1.9-1.56,1.3-3.1,2.75-2.58,5.01.57,2.51,2.65,3.05,4.91,3.44,2.57.44,5.79-1.14,7.52,2.2Z"/>
    <path class="cls-66" d="M354.44,139.69c-4.41,1.2-8.91.44-13.35.43-15.28-.04-30.57-.29-45.85-.49-1.48-.02-2.95-.32-4.42-.5-4.72-14.37,6.5-27.23,19.68-28.8,4.25-.51,5.62-2.06,5.48-6.57-.56-18.03,9.08-34.22,23.36-40.23,1.75,1.04.8,2.69.81,4.04.04,7.96,5.12,14.55,12.05,15.48,8.64,1.15,14.62-3.14,16.84-11.93.56-2.22-.05-4.74,1.65-6.67,7.92,4.84,13.55,11.54,16.97,20.22,1.05,2.65.75,3.88-2.05,4.72-9.42,2.83-17.16,7.95-21.76,16.97-1.31,2.57-3.58,2.08-5.65,2.01-7.6-.22-14.99.3-21.36,5.12-.53.4-1.13.72-1.62,1.16-2.69,2.48-6.64,5.38-5.56,8.76.9,2.81,5.65,1.01,8.66,1.09,7.15.18,14.32-.24,21.47,0,3.84.13,5.75-.79,6.91-4.86,5.88-20.69,27.5-29.74,43.79-25.15,16.59,4.68,24.52,17.87,25.18,33.78.03.75-.48,1.53-.74,2.3-2-3.23-5.05-3.69-8.57-3.68-20.76.09-41.52.03-62.28.05-9.56.01-11.23,2.02-9.57,11.25.09.5.01.99-.06,1.48Z"/>
    <path class="cls-132" d="M34.83,344.41c39.08-.06,78.15-.12,117.23-.17,1.35-.1,2.02.95,2.89,1.69,2.43,3.17,4.44,6.62,6.66,9.94.88,1.33,2.14,2.66,1.27,4.53-7.02,4.62-14.05,9.23-21.07,13.85-12.79-10.23-32.85-11.73-46.76-3.72-11.99,6.91-24.02,6.16-35.95-.35-3.35-1.83-6.86-3.37-10.14-5.3-7.83-4.62-12.84-11.28-14.12-20.46Z"/>
    <path class="cls-85" d="M452.85,427.36c-15.82.13-31.65.59-47.47-.1-.12-.48-.13-.96-.1-1.45.16-2.38,1.15-5.27-1.73-6.47-3.05-1.27-4.62,1.44-6.28,3.42-1.23.88-1.5,3.24-3.8,2.5-1.43-3.53-4.05-4.97-7.8-5.9-9.6-2.4-18.91-5.79-27.43-11.01-5.39-7.51-9.59-15.83-15.4-23.07-4.13-7.65-7.12-15.61-6.55-24.52,4.55-1.14,4.81,2.3,5.57,5.22,5.58,8.26,11.25,16.45,16.68,24.8,1.76,2.71,3.82,3.64,6.99,3.63,21.32-.1,42.65-.06,63.97.01,13.63.04,22.83,8.87,23.53,22.55.18,3.46,1.21,6.95-.19,10.38Z"/>
    <path class="cls-5" d="M270.33,271.52c5.96-3.94,11.82-8.03,17.9-11.76,4.74-2.91,5.91-2.31,7.4,3.09.62,2.24,1.87,3.47,4.23,3.35,2.1-.11,3.28-1.27,3.79-3.3,1.21-4.78,1.8-4.98,5.79-1.09,11.43,11.17,22.64,22.56,34.12,33.68,12.67,12.27,25.41,24.47,38.36,36.45,7.01,6.49,15.74,10.45,24.01,15.08,2.05,1.15,6.62,1.01,4.84,5.74-.03.09.7.68,1.05.66,6.06-.32,12.22,1.19,18.18-.94,3.9-2.74,7.27-2.74,10,.15,2.25,2.39,2.55,4.86-.13,7.22q-4.82,1.67-6.64-4.01c-2.26,4.66-5.91,5.52-10.27,4.17-1.54-.48-2.92-.08-4.34.36-5.67.9-10.89-.15-15.73-3.32-5.33-3.48-10.95-4.94-17.54-3.72-8.85,1.64-12.25-1.11-13.71-10.01-.44-2.71-1.76-4.5-3.83-6.11-15.76-12.27-30.74-25.5-46.51-37.77-3.58-4.66-6.92-9.5-12.74-11.87-2.42-.98-5.31-.39-7.38-2.35-.49-.45-.87-1-1.34-1.46-7.42-7.31-9.6-7.48-18.45-1.93-2.4,1.51-4.54,4.14-7.99,2.8-2.72-3.97-4.8-8.09-3.07-13.1Z"/>
    <path class="cls-66" d="M397.13,250.27c-2.45-1.51-5.17-.91-7.76-.85-3.02.06-5.28-1.07-6.32-3.78-1.02-2.66.52-4.67,2.43-6.52,2.05-1.98,4.41-2.73,7.19-2.73,2.46,0,4.98.23,7.3-.94,7.08.81,14.16.04,21.24.06,3.25,0,2.54-2.63,2.37-4.41-1.47-14.74,14.5-25.21,26.29-24.86,2.74.08,3.9.83,3.82,3.71-.46,17.12.56,34.26-.61,51.38-.26,3.8-.16,7.64.01,11.45.14,3.13-1.26,3.94-4.17,3.88-7.32-.16-14.65-.24-21.96.01-4.43.15-5.9-2.15-6.25-5.95-.78-8.38,3.41-14.25,9.66-19.07.52-.4,1.04-.78,2.88-2.15-3.81,0-6.31-.1-8.79.02-9.1.41-18.25-.95-27.32.75Z"/>
    <path class="cls-76" d="M116.86,292.26c-2.67-2.1-3.7-5.45-5.96-7.87-23.91-35.37-47.82-70.73-71.73-106.1-1.58-2.34-3.32-4.59-4.68-7.05-3.04-5.46-1.54-10.46,3.95-13.91,4.76-.62,6.76,3.03,8.84,6.08,8.06,11.8,16,23.69,24.05,35.5,13.48,19.77,26.49,39.87,39.66,59.85,7.55,9.01,13.07,19.43,20,28.87,1.28,1.74,2.98,4.01-.31,5.76-4.68.42-9.43,1.71-13.83-1.14Z"/>
    <path class="cls-72" d="M108.34,394.91c-11.52,7.25-23.04,14.48-34.55,21.74-3.41,2.15-6.71,4.38-7.36,8.87-.4,2.76-2.69,1.95-4.35,1.98-9.29.19-18.59.3-27.88.44-.28-8.47-1.04-16.9,4.67-24.37,3.93-5.15,9.08-8.54,15.08-8.75,18.12-.65,36.27-.94,54.4.09Z"/>
    <path class="cls-113" d="M33.99,257.32c0-4.98.17-9.98-.06-14.95-.16-3.36,1.17-4.2,4.35-4.2,12.51,0,23.12,9.56,23.69,22.05.15,3.3,1.11,4.39,4.32,4.18,3.31-.22,6.66-.22,9.96.04,5.12.4,9.29,2.54,11.3,7.61.99,2.49.88,4.22-2.65,4.8-4.71.77-9.26-.23-13.88-.18-10.29.09-20.58.18-30.85.65-4.66.21-6.7-1.03-6.26-6.03.4-4.62.09-9.3.09-13.95Z"/>
    <path class="cls-81" d="M354.44,139.69c-2.61-3.01-3.5-6.26-1.72-10.07,1.9-4.09,5.35-4.19,9.18-4.18,22.4.07,44.8.11,67.2-.11,4.1-.04,6.33.78,5.83,5.25-3.02,9.82-3.02,9.78-13.58,9.82-12.92.05-25.83.17-38.75.26-7.42-.85-14.86-.18-22.29-.4-1.97-.06-3.98.27-5.87-.57Z"/>
    <path class="cls-50" d="M321.95,298.68c13.95,10.15,26.81,21.66,40.22,32.49,1.94,1.56,3.8,3.25,5.88,4.59,3.29,2.11,5.11,4.5,5.06,8.85-.06,5.38,3.96,9.08,9.22,7.75,9.3-2.36,16.84.59,24.37,5.28,3.69,2.3,8.03,1.74,12.17,1.71,1.47,2.86-1.03,4.23-2.27,6.07-3.62,2.24-7.43.96-11.19.6-1.42-.47-3-.41-4.32-1.13-5.14-2.82-10.05-2.02-15.26.16-7.68,3.21-15.6.47-19.49-6.17-1.03-1.76-1.79-3.61-1.72-5.64.14-3.61-1.28-6.43-3.97-8.71-2.69-2.97-6.1-5.07-9.26-7.46-5.05-3.53-8.96-8.4-13.99-11.97-1.56-1.85-3.85-2.93-5.31-4.9-.9-1.49-2.17-2.52-3.83-3.06-2.22-1.16-3.85-3.1-5.95-4.43-1.23-1.25-2.11-2.65-1.87-4.51,2.05-2.93-.03-6.51,1.5-9.52Z"/>
    <path class="cls-128" d="M110.21,259.38c-13.64-20.4-27.28-40.81-40.94-61.21-7.66-11.44-15.38-22.84-23.05-34.27-1.98-2.95-4.14-5.62-7.78-6.58,5.03-3.8,9.48-3.21,14.41,1.35,3.39,3.14,4.65,7.99,8.83,10.4,14.3,21.16,28.63,42.31,42.49,63.75,3.94,6.09,8.89,11.59,11.55,18.5-.64,3.5-2.29,6.32-5.51,8.05Z"/>
    <path class="cls-25" d="M361.19,343.53c2.9,1.72,4.37,3.96,4.41,7.64.12,10.45,10.07,17.32,19.43,12.77,7.72-3.75,13.97-2.31,20.37,2.1-4.03,1.13-7.61,3.24-11.25,5.19-10.89,5.83-21.56,5.22-32.1-.87-5.38-3.11-11.04-5.26-17.37-5.01-.95.04-1.89.42-2.84.63-1.81-1.98-2.81-4.74-5.6-5.76-1.57-.69-1.33-1.97-1.05-3.26,7.78-6.18,15.44-12.6,25.99-13.43Z"/>
    <path class="cls-66" d="M370.68,64.45c.16,4.7-.08,9.35-2.93,13.34-4.58,6.41-11.58,8.56-18.89,5.96-5.95-2.12-10.05-8.63-9.87-15.77.04-1.49.23-2.97.35-4.45,6.27-9.01,12-11.41,20.85-9.08,5.43,1.43,7.48,6.18,10.51,10.01Z"/>
    <path class="cls-108" d="M73.03,168.95c5.42-1.3,7.24,3.24,9.54,6.35,3.54,4.8,6.46,10.04,9.68,15.08,6.62,10.35,13.27,20.68,19.91,31.02-2.59,1.81-5.18,3.62-8.24,4.61-2.08-.26-3.05-1.89-4.01-3.41-8.71-13.71-17.89-27.11-26.58-40.83-2.75-4.35-3.26-8.47-.29-12.81Z"/>
    <path class="cls-68" d="M114.99,218.41c-8.3-13.36-16.6-26.71-24.89-40.08-1.58-2.54-2.61-5.3-.08-7.71,2.5-2.39,5.53-1.74,8.36-.46,2.36,1.07,3.79,3.11,5.12,5.26,5.59,9.01,11.24,17.99,16.86,26.98.6.75,1.2,1.5.88,2.57-2.65,4.21-3.27,9.37-6.25,13.43Z"/>
    <path class="cls-47" d="M136.15,203.4c-5.04-8.14-10.13-16.24-15.09-24.43-1.6-2.65-3.88-5.81-.53-8.44,3.18-2.49,6.95-1.76,10.22.41,1.95,1.3,3.17,3.34,4.46,5.28,1.17,1.77,1.85,3.94,3.88,5.06,5.3,6.27,9.32,13.41,13.82,20.23.65.99.87,2.13.04,3.22-4.45,1.14-9.27.08-13.56,2.25-2.31-.09-2.88-1.74-3.25-3.59Z"/>
    <path class="cls-66" d="M423.8,188.41c-4.32,0-7.65.1-10.97-.03-2.63-.11-4.63-1.68-4.71-4.24-.08-2.85,1.48-5.45,4.66-5.41,3.52.05,5.16-1.09,6.46-4.49,1.85-4.81,7.19-6.94,13.02-5.88,4.77.87,7.6,4.07,8.43,8.7.82,4.55-.96,8.28-5.1,10.43-4.04,2.1-8.53.47-11.79.91Z"/>
    <path class="cls-56" d="M73.03,168.95c.82.59.87,1.25.33,2.09-1.96,3.04-1.43,6.03.42,8.86,9.96,15.24,19.95,30.46,29.93,45.68,3.51,2.26,4.82,6.24,7.31,9.31,5.87,9.17,12.33,17.94,18.32,27.02,1.04,1.58,2.71,3.04,1.89,5.33-3.41.87-4.66-1.91-5.93-3.95-2.18-3.5-4.83-6.7-6.81-10.31-1.03-1.89-.85.09-1.24.3-1.89.96-1.64-.67-1.98-1.61-17.35-26-34.71-52-51.99-78.04-.85-1.28-3.15-2.32-1.59-4.55.72.08,1.45.15,2.17.23,1.88,2.3,3.7,4.63,5.57,7.41-1.08-3.37-.4-5.84,2.57-7.41.34-.12.68-.24,1.03-.36Z"/>
    <path class="cls-130" d="M61.17,140.45c-3.49,0-6.98-.04-10.47.01-3.36.05-6.37-1.01-6.45-4.66-.09-3.75,2.82-4.85,6.28-4.59,1.32.1,2.67-.09,3.99.05,3.44.36,5.73-.1,6.8-4.31,1.26-4.93,6.36-7.12,11.14-5.84,5,1.35,8.23,6.11,7.69,11.35-.53,5.15-3.8,7.94-9.5,8.02-3.16.04-6.32,0-9.48,0,0-.01,0-.02,0-.04Z"/>
    <path class="cls-125" d="M438.76,359.48c2.1-1.26,2.35-3.21,1.28-5.05-1.21-2.08-3.3-3.19-5.79-2.94-1.44.15-2.84.65-4.26.99-5.06-2.7-10.11-5.4-15.17-8.1,12.66-.02,25.32-.03,37.98-.05-1.28,14.62-16.51,26.73-29.39,23.37-1.76-.46-3.57-.81-4.75-2.4.19-3.69,2.9-3.21,5.37-3.33,5-.25,10.16.28,14.74-2.48Z"/>
    <path class="cls-78" d="M142.86,172.76c5.89.6,11.81,1.83,16.73-3.27,1.25-1.3,1.71,1.02,2.19,1.78,5.22,8.27,12.89,12.23,22.43,12.93,7.56.56,7.56.51,6.75,8.2-8.81,4-22.12,0-25.92-7.78-.4-2.14-2.21-1.67-3.56-1.79-7.66-.71-13.89-3.99-18.63-10.07Z"/>
    <path class="cls-82" d="M152.61,204.23c-2.47-6.39-7.2-11.39-10.59-17.22-1.08-1.86-2.38-3.59-2.92-5.72,6.97.17,13.37,1.6,18.29,7.2,2.43,2.77,3.1,7.14,7.37,8.26,2.42,3.03,1.8,6.27.63,9.54-3.72,2.45-7.41.36-11.12-.07-.86-.4-1.45-1.03-1.66-1.98Z"/>
    <path class="cls-35" d="M164.71,206.23c.01-3.17.03-6.33.04-9.49.11-.78.22-1.56.32-2.34.31-.58.74-1.5,1.32-1.29,7.63,2.76,15.19-1.71,22.8-.15.64.13,1.3.05,1.69.71-.14.46-.16,1.24-.45,1.35-9.09,3.58-10.76,12.98-15.65,19.84-.38.53-.8,1.04-1.2,1.56-5.83-.09-9.04-3.78-8.87-10.18Z"/>
    <path class="cls-84" d="M280.66,257.41c-3.12,2.37-6.24,4.75-9.36,7.12-1.54.7-2.42,2.33-4.05,2.9-1.13.56-2.3.94-3.57.54-1.89-1.11-1.03-2.66-.41-3.91,3.84-7.69,7.56-15.45,12.26-22.68,4.57.22,4.9,4.65,7.14,7.19,3.44,3.89.68,6.35-2.01,8.83Z"/>
    <path class="cls-123" d="M266.75,266.46c1.37-.99,2.55-2.43,4.54-1.92-.68,2.28-1.99,4.47-.97,6.98.61,4.63,1.8,9.09,3.91,13.28,1.14.75,1.51,1.62.41,2.7-1.28.19-1.54.89-1.21,2.1.31,1.14.37,2.32-.84,3.1-.52.03-.97-.14-1.36-.47-3.93-5.73-5.63-12.23-6.67-18.98-.32-2.6.61-4.8,2.18-6.8Z"/>
    <path class="cls-150" d="M438.76,359.48c-4.26,4.47-9.9,3.87-15.24,3.83-2.15-.01-3.84-.19-4.87,1.98-.68.05-1.37.09-2.05.14-.37-.26-1.8-.4-.69-.95,2.3-1.13,2.17-3.31,2.95-5.12,1.46-1.3,2.58-1.51,4.7-.48,4.78,2.31,7.9.06,7.96-5.2,2.3.25,4.76.85,4.05,3.67-1.15,4.56,1.82,1.92,3.19,2.13Z"/>
    <path class="cls-126" d="M280.66,257.41c3.17-5.74,2.34-8.51-4.8-16.04-3.04-1.02-3.71-3.76-4.63-6.34.09-2.14,1.1-3.3,3.35-3.14,2.73,1.34,3.4,4.28,4.99,6.5,2.58,3.59,5.54,6.86,8.34,10.25-.41,1.55-.83,3.09-1.24,4.64-1.57,2.01-3.98,2.79-6.02,4.12Z"/>
    <path class="cls-117" d="M110.17,235.46c-2.3-3.2-4.82-6.25-6.47-9.88,2.68-1.67,4.75-4.57,8.45-4.18,1.16.48,1.87,2.95,3.61.81.23.08.46.15.7.23.62.43,1.01,1.03,1.16,1.77-2.59,2.95-3.85,6.49-4.74,10.26-.24,1.02-1.34,1.94-2.72,1Z"/>
    <path class="cls-36" d="M114.99,218.41c.75-5.29,2.73-10.07,6-14.3.48-.11.94-.04,1.38.18,1.6,1.26,2.25,3.02,2.61,4.94.15,1.37.53,2.71.57,4.1-2.01,3.97-5.71,6.23-8.99,8.92l-.4.14s-.39-.17-.39-.17c.4-1.4-.35-2.57-.78-3.8Z"/>
    <path class="cls-32" d="M190.89,193.66c-3.81-.04-7.7.37-11.42-.25-3.82-.64-4.66,3.5-7.48,3.82-2.64.29-3.14-5.34-6.91-2.84-.01-3.26-.02-6.51-.03-9.77,7.15,7.56,16.26,8.58,25.92,7.79-.03.42-.05.83-.08,1.25Z"/>
    <path class="cls-114" d="M72,169.31c-2.61,2.96-2.69,6.18-.94,9.83-2.92-3.07-6.69-5.23-7.2-9.84,2.71-.6,5.43-.43,8.14,0Z"/>
    <path class="cls-18" d="M121.71,204.23c-.24,0-.48-.04-.71-.11-.21-.57-.42-1.13-.63-1.7,5.16-3.18,10.16-4.72,14.53,1.28.1.14.82-.19,1.26-.29.89,1.06,1.77,2.11,2.66,3.17.68.64.63,1.34.2,2.09-.89.66-1.86.71-2.88.4-.6-.27-1.2-.61-1.53-1.17-3.13-5.37-7.54-6.15-12.89-3.66Z"/>
    <path class="cls-137" d="M195.43,140.4c-.74-1.51.69-3.99-1.79-4.67-2.13-.59-3.25.23-3.56,2.72-.89,7.07-4.42,11.09-9.93,11.87-5.68.8-10.19-1.95-13.41-8.16-.22-.43-.52-.81-1.04-1.63-2.98,3.14-7.85,5.05-4.07,10.74.64.97.37,2.59.4,3.91.02.95.15,2.11-1.24,2.3-1.01.14-2.06.15-2.56-.97-2.44-5.4-6.17-8.76-12.48-7.36-5.62,1.24-8.41,5.51-9.92,10.85-13.09-11.55-10.94-30.47,3.95-38.07,1.82-2.04,2.4-4.23,2.29-7.12-.32-8.47,5.59-15.17,13.77-16.29,2.6-.36,5.17-.08,6.72,2.24,1.68,2.5-.43,4.22-1.92,6.21,4.65-1.08,6.91-4.48,8.94-8.16,3.15-5.71,7.69-9.1,14.53-8.54,6.68.54,8.37,3.31,5.43,9.59,4.69-1.88,6.08-5.6,6.99-9.76,1.04-4.78,3.3-5.57,7.3-2.69,8.05,5.78,8.65,18.63,1.19,27.1-2.9,3.29-6.44,5.75-10.55,7.37-5.46,1.71-11.06.8-16.6,1-4.29-.27-8.54-.09-12.81.66-7.14,1.24-9.17,5.01-6.17,12.03,1.88-.56,2.57-2.46,3.97-3.56,3.51-4.6,8.07-6.41,13.9-6.1,7.29.38,14.61.02,21.91.13,1.83-.06,3.61.06,5.13,1.26,2.99.06,5.99.28,8.97.15,3.09-.14,4,1.2,4.03,4.14.08,6.76.32,13.47-6.58,17.58-2.45,2.8-5.23,2.4-8.13.85-1.5-1.49-.61-3.29-.64-4.97-.19-3.91-4.43-2.58-6.03-4.66Z"/>
    <path class="cls-19" d="M276.48,171.1c4.98.09,9.96.12,14.93.28,3.29.11,3.97-1.04,2.94-4.21-2.43-7.46-.11-13.55,6.09-17.05,6.24-3.53,12.67-2.38,18,3.21,6.48,6.8,3.64,17.89-5.68,22.16-4.53,2.08-6.67,7.34-4.95,11.89.59,1.56,1.8,1.74,3.14,1.96,2.34.38,5.11,2.19,4.42,3.89-2.09,5.15,1.9,10.25-.52,15.12-.8,1.61-.2,2.72.51,4.13,2.41,4.76.96,7.16-4.58,7.9-.46-3.61-2.55-4.88-6.1-4.67-2.39.14-4.96.52-7.12-1.18-1.07-2.13-.15-3.65,1.51-4.95,1.86-1.23,4-1.33,6.14-1.49,1.55-.11,4.14.34,4.09-1.55-.06-2.35-2.77-1.54-4.42-1.73-2.73-.32-5.62.55-8.15-1.17-.97-1.85.09-3,1.39-4.07,2.8-1.82,6.03-1.21,9.09-1.6.97-.12,2.13-.36,2.14-1.59,0-1.31-1.27-1.29-2.19-1.47-3.47-.68-7.27.93-10.49-1.49-.24-.41-.36-.86-.39-1.33.19-1.45,1.13-2.46,2.3-3.05,2.86-1.44,2.09-3.2.68-5.13.71-4.76,1.38-9.54,5.14-13.1,1.13-.5,2.35-.57,3.55-.73,2.17-.39,4.34-.8,5.93-2.55,1.72-2.67,1.18-5.66,1.25-8.55-.26-.8-.64-1.55-1.18-2.2-1.42-1.59-3.03-2.85-5.24-3.06-.64-.02-1.27-.01-1.9.05-2.44.46-4.37,1.73-5.89,3.66-1.04,1.75-.76,3.79-1.25,5.66-.4,2.65,2.26,4.41,2.04,7-.53,2.94-1.55,5.58-4.31,7.17-.76.29-1.59.59-2.36.46-5.66-.93-9.22,1.05-10.03,7.03-1.47.99-3.02,1.04-4.62.42-1.69-.98-1.56-2.74-1.85-4.33-.2-1.11-.24-2.56-1.83-2.42-1.53.14-1.39,1.6-1.5,2.72-.1.98,0,1.97,0,2.96.02.48.01.96,0,1.43-1.31,4.75,2.23,7.37,4.6,10.51.78,4.7-2.91,3.51-5.14,3.61-3.35.15-6.44.17-6.51,4.68-2.77,2.1-4.04-.47-4.99-2.03-1.18-1.93-1.06-4.79,1.07-5.77,6.21-2.85,4.87-8.14,4.89-13.07.01-2.81.07-5.63-.02-8.44-.07-2.12.73-3.5,2.8-4.07,1.56-.85,3.1-.84,4.59.16Z"/>
    <path class="cls-54" d="M195.09,120.48c4.72-2.83,9.31-5.75,11.94-10.92,4.22-8.27,1.76-18.18-5.57-22.34-2.59-1.47-3.61-1.4-3.8,2.07-.46,8.24-4.05,11.9-10.96,11.84.26-.46.47-.9.75-1.3,1.26-1.83,3.91-3.56,2.64-5.85-1.2-2.17-4.11-2.54-6.67-2.67-6.84-.36-10.75,3.52-13.38,9.21-2.27,4.91-5.53,8.24-11.43,7.72-.15-.84.37-1.22.75-1.75,1.18-1.65,4.11-3.03,2.75-5.21-1.2-1.91-4.13-1.81-6.47-1.53-8.23,1.01-13.67,8.27-12,16.97.75,3.94-.36,5.11-3.87,5.22-4.97-14.15,1.92-26.41,15.85-28.15,1.15-.14,2.56-.49,3.44,0,5.04,2.78,8.03.08,11.35-3.37,4.48-4.65,10.34-5.83,16.55-4.36,2.75.65,4.51.74,4.78-2.74.22-2.91,2.49-3.09,4.79-3.1,8.33-.03,16.75,8.68,17.27,18.24.4,7.39-1.67,14.06-8.26,18.1-4.16,2.55-5.3,4.95-2.1,8.88.36.44.27,1.25.39,1.88-1.61,0-3.22-.02-4.83-.03-2.57-1.54-4.27-3.58-3.88-6.81Z"/>
    <path class="cls-146" d="M275,232.72c-2.33-.46-3.2.62-3.02,2.84-.57,5.37-4.56,9.06-6.79,13.61-2.03,4.15-4.67,8-6.97,12.03-2.66,4.66-4.86,4.6-7.83-.1-1.68-2.66-3.37-5.32-5.18-7.89-1.08-1.59-2.85-2.79-2.92-4.98,1.15-2.71,2.56-5.01,6.14-3.65,1.73,2.97,3.29,7.26,6.66,7.31,3.1.05,3.52-4.7,5.2-7.26,2.27-3.44,4.18-7.12,6.31-10.65,1.75-2.9,2.65-5.89,2.64-9.37-.01-6.42-.8-12.87.4-19.27,1.39-1.2,2.84-1.03,4.32-.2,2.5,4.32,1.16,9.05,1.32,13.59.25,7.08.19,7.19,7.26,7.21,3.64.01,7.3-.26,10.91.07,4.68.42,8.08-.71,9.19-5.77,1.5-.88,2.93-1.02,4.2.42,1.51,3.2.22,6.45.14,9.67-.05,2.07-1.81,1.94-3.3,1.98-3.11.07-6.21.16-9.32.24-6.44,2.38-12.9,1.88-19.37.18Z"/>
    <path class="cls-97" d="M207.39,151.09c.36-.09.84-.25,1.35-.56.74-.44,1.21-.98,1.48-1.34,2.04,5.62,2.63,10.17,2.8,13.11.14,2.35.02,3.82-.13,4.95-.63,4.52-2.46,7.56-2.93,8.3,0,0-1.45,2.3-5.68,5.42-.24.17-.49.28-.76.27-.23,0-.4-.09-.48-.14-.67-.35-.9-1.3-.93-1.45-.09-.35-.17-.9,0-1.49.32-1.09,1.3-1.67,1.52-1.81,1.96-1.27,4.15-7.07,4.92-11.69,1.02-6.14-.32-11.12-1.16-13.58Z"/>
    <path class="cls-88" d="M177.89,218.43c4.07-6.21,8.14-12.41,12.52-19.1,1.47,2.68,1.67,5.46,5.4,5.26,18.23-.97,30.95,8.2,40.28,22.91,2.48,3.92,5.39,7.36,8.66,10.56-.87,2.23-2.83,2.68-4.87,2.99-3.16-.55-4.07-3.47-5.85-5.5-2.81-4.35-6.29-8.18-9.62-12.11-5.64-6.66-13.24-9.85-21.63-11.44-2.03-.38-3.4.32-4.63,2.05-5.43,7.66-10.08,9.09-19.31,6.2-.68-.42-1.23-.91-.96-1.83Z"/>
    <path class="cls-20" d="M177.89,218.43c.28.31.55.62.83.92,1.52,2.51-.57,2.84-2.09,3.18-2.83.64-5.65.13-8.24-1.04-4.8-2.17-9.79-2.92-14.99-2.63-4.81-.31-9.68-.46-12.83-5.03-.56-1.02-.65-2.09-.29-3.19,3.49-4,7.99-5.5,13.18-5.24,3.75.27,7.51.55,11.26.82,1.1,5.01,4.01,8.44,8.87,10.18.97,1.67,2.62,1.89,4.31,2.03Z"/>
    <path class="cls-144" d="M273.89,205.46c-1.41-.04-2.82-.08-4.24-.12-.5-.34-1-.68-1.5-1.01-1.91-4.51-1.27-5.74,3.23-5.92,2.13-.09,4.26,0,6.4.04,1.54.03,1.46-.89,1.22-1.94-.16-3.42-1.33-6.89.44-10.24,1.75-1.63,3.71-1.69,5.79-.73,1.81,3.11.86,6.52,1.09,9.81.04,7.14.13,14.28-.07,21.42-.06,2.24.07,5.11-3.23,5.21-3.11.1-4.19-2.21-4.49-4.94-.21-1.99-.3-4-.12-5.97.31-3.43-1.01-5.34-4.52-5.6Z"/>
    <path class="cls-22" d="M275,232.72c6.46-.06,12.91-.12,19.37-.17-1.28,5.72-4.3,10.74-6.46,16.1-6.62-3.43-9.32-10.04-12.91-15.93Z"/>
    <path class="cls-73" d="M239.74,240.47c1.67-.8,3.35-1.61,5.02-2.41,2.48,1.46,5.4,2.68,3.67,6.52-2.47.42-4.56,1.41-5.78,3.76-2.65,3.49-7.19,5.18-9,9.48-.29.4-.67.68-1.14.84-3.36-2.15-4.23-5.76-5.43-9.2-.09-1.68.91-2.73,2.13-3.65,3.47-1.86,6.44-4.71,10.53-5.34Z"/>
    <path class="cls-102" d="M276.48,171.1c-1.53-.05-3.06-.11-4.59-.16-.17-5.19-2.71-7.1-7.93-6.42-3.75.49-7.61.08-11.41.1-1.79,0-3.56-.29-3.55-2.46.01-1.85,1.66-2.31,3.25-2.31,6.13,0,12.25.07,18.38.07,2.39,0,3.67,1.32,4.19,3.46.63,2.56,1.11,5.15,1.66,7.73Z"/>
    <path class="cls-80" d="M183.92,154.08c4.66,3.4,9.43,3.29,14.31.51,1.35-.77,2.88-2.33,4.13-.03,1.25,2.3-.99,2.7-2.27,3.49-5.04,3.12-10.42,2.29-15.81,1.31-1.34-1.07-3.69-1.33-3.42-3.75.21-1.86,1.68-1.73,3.06-1.53Z"/>
    <path class="cls-2" d="M306.84,220.65c-1.31.01-2.62.02-3.93.03-2.42.48-4.24-.72-5.58-2.44-.89-1.15-2.31-2.85.38-3.87,3.12-.01,6.23-.07,9.35-.02,5.04.07,5.5.86,3.7,6.02-1.31.09-2.62.19-3.93.28Z"/>
    <path class="cls-90" d="M201.72,149.27c-3.73,1.61-7.43,2.68-10.96-.46.16-1.86.67-3.53,2.45-4.5,3.17-1.69,6.28-2.08,9.26.42.55,1.65-.55,3.02-.76,4.54Z"/>
    <path class="cls-21" d="M145.95,164.69c-2.84-2.86-2.63-5.93.55-7.92,3.89-2.43,6.4.32,8.36,3.5-2.86,1.69-5.93,2.97-8.91,4.42Z"/>
    <path class="cls-135" d="M366.02,218.34c2.11-.02,3.61.87,3.7,3.11.09,2.37-1.32,3.79-3.62,3.89-2.19.1-3.35-1.27-3.38-3.44-.03-2.18,1.07-3.41,3.31-3.56Z"/>
    <path class="cls-142" d="M145.95,164.69c1.88-3.67,5.24-4.37,8.91-4.42.61,2.37-.07,4.27-2.32,5.29-2.3,1.04-4.69,1.6-6.6-.87Z"/>
    <path class="cls-31" d="M202.48,144.73c-3.09-.14-6.18-.28-9.26-.42-.45-1.97,1.07-2.84,2.21-3.92,2.99.4,6.98-.81,7.05,4.33Z"/>
    <path class="cls-112" d="M342.85,207.23c1.9-.01,3.01.72,3.11,2.57.11,2.03-1.07,3.14-2.91,3.3-1.74.15-2.8-1.04-2.99-2.67-.23-2.04,1.07-2.95,2.78-3.2Z"/>
    <path class="cls-9" d="M368.22,213.16c-1.75-.28-2.61-1.38-2.5-3.07.11-1.71,1.12-2.73,2.91-2.57,1.59.14,2.21,1.26,2.22,2.73.01,1.74-.84,2.75-2.62,2.91Z"/>
    <path class="cls-53" d="M346.81,196.81c-.01,2.55-1.14,3.73-3.33,3.75-2.12.02-3.58-.95-3.5-3.22.07-2.02,1.23-3.56,3.31-3.66,2.16-.1,3.1,1.53,3.52,3.13Z"/>
    <path class="cls-127" d="M349.83,227.9c-.19,1.3-.68,2.32-2.1,2.25-1.11-.06-1.71-.87-1.79-1.95-.09-1.29.5-2.33,1.82-2.43,1.37-.1,1.95.91,2.08,2.12Z"/>
    <path class="cls-59" d="M345.79,240.13c-1.14-.27-1.8-.96-1.58-2.05.15-.78.77-1.46,1.72-1.34,1.1.15,1.72.94,1.53,2-.14.78-.79,1.36-1.66,1.38Z"/>
    <path class="cls-105" d="M316.7,412.8c-28.27.07-56.53.12-84.8.23-2.08,0-4.25-.51-6.67.8,2.66,4.44,5.26,8.78,7.89,13.16-6.24,1.89-9.9-.37-13.24-5.6-8.74-13.72-17.32-27.58-27.22-40.54-5.73-5.03-8.98-11.92-13.05-18.11-6.4-9.71-13.16-19.15-19.75-28.71-.85-1.23-1.75-2.43-2.45-3.75-1.83-3.45-1.11-4.76,2.91-5.06,2.14-.16,4.32-.27,6.41.48,5.37,3.57,7.5,9.64,11.04,14.59,5.5,7.71,10.69,15.66,15.97,23.54,3.3,4.41,6.18,9.12,9.66,13.41,1.17,1.83,2.74,3.45,3.57,5.4,3.64,8.63,10.1,10.64,19.1,10.43,25.4-.57,50.81-.2,76.22-.2,2.99,0,5.98.04,8.9-.76,2.3-.29,2.72,1.51,3.13,3.04,1.16,4.29,2.59,8.49,3.84,12.75.53,1.82,1.35,3.96-1.47,4.89Z"/>
    <path class="cls-98" d="M388.96,427.19c-7.76.54-15.52.45-23.29-.04-2.72-.76-5.45-1.46-8.05-2.62-5.84-2.61-11.9-4-18.38-3.93-6.33.07-9.03-2.26-10.76-8.29-9.14-31.82-19.65-63.21-29.49-94.81-1.13-3.63-2.83-7.24-1.88-11.17,1.71-7.07,5.56-12.04,13.36-12.81,5.76,1.35,9.39,5.77,9.26,11.24-4.12,1.65-4.41,4.6-3.34,8.5,5.65,20.67,12.21,41.08,18.16,61.66,2.26,7.82,4.64,15.6,6.84,23.44,1.84,6.58,5.83,10.86,12.35,13.23,5.9,2.15,11.91,4.21,17.05,8.08,2.16,1.62,4.7,1.43,7.2.98,2.46-.45,4.94-.82,7.42-.29,3.89.83,4.76,2.55,3.54,6.85Z"/>
    <path class="cls-65" d="M185.15,393.78c2.19,3.13,4.25,6.35,6.59,9.35,1.77,2.26.92,3.3-1.18,4.56-10.12,6.08-20.17,12.28-30.25,18.42-1.28.78-2.6,1.44-4.19,1.43-21.96-.02-43.92-.01-66.28-.92,17.88-10.94,35.76-21.88,53.65-32.81,13.89-1.47,27.77-1.72,41.66-.03Z"/>
    <path class="cls-46" d="M310.61,294.21c-3.54,1.61-7.63,2.12-9.86,6.11-2.61,4.67-2.98,9.2-1.35,14.32,9.44,29.59,18.7,59.24,28,88.88.85,2.69,1.6,5.42,2.24,8.17,1.36,5.83,3.64,8.02,9.69,7.75,9.74-.44,18.24,2.8,26.33,7.72-12.59.05-25.18.06-37.77.17-4.46.04-5.75-3.09-7.07-6.45-1.11-2.82-.95-6.33-4.15-8.07,1.57-1.21.83-2.58.39-4.02-1.67-5.36-3.27-10.75-4.9-16.12-2.16-.92-2.28-3.06-2.86-4.89-2.29-7.21-4.31-14.5-6.78-21.66-.66-2.29-1.27-4.59-1.88-6.9-4.24-14.84-9.02-29.52-13.35-44.34-.42-1.45-1.39-2.57-2.39-3.73-5.12-5.93-4.5-13.27,1.88-17.7,6.84-4.75,14.4-4.26,21.95-1.79,1.04.34,2.16,1.02,1.86,2.54Z"/>
    <path class="cls-55" d="M388.96,427.19c.56-3.78-.94-5.63-4.89-5.58-6.75.08-13.64,1.86-19.53-3.98-2.39-2.37-6.52-3.22-10.01-4.22-8.19-2.34-12.54-7.76-14.83-15.8-8.17-28.71-16.69-57.31-24.97-85.99-1.55-5.37-.77-6.36,4.57-7.46,2.42.78,2.11,2.71,1.94,4.58.36,1.13.19,2.52,1.58,3.11.94,1.45,1.54,3.05,2.18,4.62,1.67,2.96,5.45.62,7.36,2.93,1.82,1.59,3.65,3.19,5.47,4.78-.11,3.06-2.6,2.27-4.27,2.47-5.43.65-5.49.63-4.24,6.09.41,1.76.71,3.56,1.39,5.25,1.79,6.4,4.65,12.53,4.91,19.32.21.97.43,1.94.64,2.91,2.02,8.44,3.19,17.15,7.57,24.88,1.94,3.3,2.78,6.98,3.63,10.64.98,4.22,2.67,7.74,7.35,8.96,1.43.37,2.44,1.63,3.57,2.58,9.65,4.67,19.25,9.5,29.95,11.35,3.59.62,5.74,2.31,5.85,6.11.87,1.4-.33,1.74-1.16,2.26-1.34.42-2.68.83-4.07.19Z"/>
    <path class="cls-12" d="M166.5,326.34c-2.96.14-5.92.27-9.91.46,4.48,6.53,8.54,12.47,12.63,18.39,8.09,11.71,16.13,23.44,23.44,35.66-6.27-.8-7.38,4.58-9.91,8.26-1.17.64-2-.1-2.51-.89-2.69-4.16-5.87-8.04-7.55-12.8-2.48-5.53-5.49-10.72-9.82-15.04-2.93-4.79-5.85-9.58-8.78-14.36-2.34-5.66-6.61-10.05-9.99-15.02-2.81-4.14-2.73-5.03,1.2-7.91,2.62.84,4.97-1.04,7.55-.78,3.88,1.44,8.01.19,11.94,1.13,1.16.62,2.61,1.07,1.71,2.9Z"/>
    <path class="cls-70" d="M207.87,427.4h-18.47c4.48-2.79,7.88-4.88,11.25-7.02,1.39-.88,2.42-.65,3.27.75,1.1,1.81,2.25,3.58,3.95,6.27Z"/>
    <path class="cls-115" d="M396.69,422.1c1.31-3.9,4.25-6.01,7.83-4.08,3.95,2.13,3.28,5.88.85,9.23,0,0-.16.12-.16.12-2.28-2.66-5.75-3.41-8.52-5.27Z"/>
    <path class="cls-69" d="M396.69,422.1c4.13-.32,7.63.35,8.52,5.27-4.06-.12-8.13-.25-12.19-.37.39-.75.78-1.5,1.16-2.26.65-1.06.86-2.53,2.51-2.64Z"/>
    <path class="cls-136" d="M136.63,320.38c-4.21-11.27-13.34-11.68-23.27-10.81-4.46.39-9.16.31-10.59-5.53,8.38-.49,16.77-.07,25.15-.14,18.56-.12,37.11-.18,55.67.04,5.18.06,8.64-1.25,9.88-6.55,5.22-2.77,10.78-1.2,16.22-1.25.86.15,1.66.46,2.36,1,1.42,1.53,3.14,2.89,3.18,5.26-1.37,2.99-4.08,4.67-6.51,6.64-7.37,5.98-11.61,13.41-10.7,23.2.85,2.55.65,4.85-1.55,6.7-1.81,1.46-3.71,2.82-5.58,4.2-1.86,1.37-3.22,2.88-2.73,5.4.22,1.14.6,2.51-.77,3.07-1.81.75-2.83-.75-3.59-1.97-4.21-6.77-9.28-12.98-13.15-19.96-2.22-4-5.81-6.81-8.42-10.45-.86-1.2-2.17-1.44-3.55-1.42-5.15-.09-10.31.12-15.45-.07-2.69-.1-4.85.63-6.6,2.63Z"/>
    <path class="cls-14" d="M211.35,297.58c-5.75-.03-11.51-.06-17.26-.1-2.47,1.85-5.36,1.48-8.15,1.49-26.85.16-53.7-.17-80.55-.09-.97.13-1.92.14-2.62-.72-.23-4.47,3.21-5.08,6.31-5.63,2.53-.44,5.19-.21,7.79-.28,4.99-.04,9.98-.08,14.98-.12,4.22-2.27,8.77-.95,13.17-1.19,9.58-.28,19.15-.05,28.73.02,9.71-.22,19.43-.25,29.14,0,5.79.15,7.87,1.99,8.47,6.61Z"/>
    <path class="cls-42" d="M136.63,320.38c-.82-3.1.14-4.34,3.55-4.19,6.53.29,13.08.19,19.62.25,2.2,2.31,5.32,4.03,5.16,7.88-3.27.01-6.54.02-9.82.04-1.51,0-3.04.06-3.33-1.97-2.32-1.7-4.28-1.35-5.88,1.03-3.75,2.15-3.03,4.51-.92,7.66,3.24,4.83,8.11,8.73,9.07,14.95-.68-.6-1.35-1.19-2.03-1.79-4.79-7.22-9.59-14.44-14.36-21.68-.44-.67-.71-1.45-1.06-2.17Z"/>
    <path class="cls-48" d="M102.77,298.16c.42-.02.84-.04,1.27-.06,6.93-.43,13.88-.07,20.81-.19,2.03-.03,3.54.78,4.36,2.65.81,1.85.79,3.55-1.24,4.69-8.42.04-16.91,1.53-25.2-1.2-.92-1.96-1.38-3.93,0-5.89Z"/>
    <path class="cls-37" d="M137.46,319.69c-1.05-1.3-1.62-2.88-2.44-4.31-2.98-5.18-7.04-8.05-13.36-7.4-3.6.37-7.28.22-10.91-.02-2.67-.17-5.35-.58-6.48-3.63-.8-1.81-1.08-3.71-.9-5.68,1.04-3.63,3.89-4.61,7.21-4.93,2.11-.2,4.34.33,6.26-1.03-.67-3.7-1.99-6.94-5.93-8.31-1.54,1.55-3.47.76-5.2.76-20.64.05-41.27,0-61.91.04-7.15.01-9.68,2.5-9.75,9.54-.08,7.99.25,15.99-.13,23.96-.22,4.7.98,6.18,5.95,6.13,25.29-.26,50.59-.09,75.89-.1,2.92,0,5.73.63,5.85,3.95.13,3.66-2.93,3.81-5.73,3.8-8.32-.02-16.64.06-24.96-.06-2.96-.04-5.35.49-7.63,2.72-3.62,3.53-6.85,3.34-10.28-.36-1.8-1.94-3.72-2.43-6.19-2.39-7.65.11-15.31.07-22.97.07-11.11.01-11.34.3-9.19,11.5.03.16.12.31.18.46,2.44,1.96,5.35,1.56,8.15,1.57,33.61.03,67.21.02,100.82,0,2.16,0,4.33.09,6.46-.46,4.25-2.24,1.62-4.74.05-6.81-4.66-6.1-8.77-12.56-12.85-19.03ZM83.76,308.41c-7.13.07-14.26.05-21.39-.01-2.41-.02-3.67-1.45-3.61-3.81.06-2.18,1.46-3.31,3.55-3.36,3.65-.08,7.29-.02,10.94-.02v-.08c3.48,0,6.97-.05,10.45.02,2.19.04,4.05.92,4.18,3.35.15,2.68-1.65,3.89-4.11,3.92Z"/>
    <path class="cls-34" d="M453.54,295.95c.14-8.18-2.62-10.78-10.7-10.78-31.46,0-62.92,0-94.38.03-1.41,0-2.95-.5-4.48.79.31.54.52,1.17.94,1.57,12.31,11.69,24.65,23.35,36.95,35.05,1.72,1.64,3.68,2.02,5.93,2.01,8.16-.04,16.31,0,24.47.05,2.96.02,5.54.96,5.54,4.36,0,3.58-2.95,3.42-5.48,3.43-5.2.02-10.4,0-15.6,0-.09.39-.17.77-.26,1.16,6.12,3.58,12.24,7.17,18.36,10.75,11.36,2.98,22.92,1.22,34.4,1.44,1.34.03,2.56-.56,3.58-1.49,1.64-16.1.46-32.25.75-48.38ZM425.54,308.41c-2.15.13-4.32.03-6.48.03,0,.01,0,.03,0,.04-1.99,0-3.99.04-5.98-.01-2.22-.06-3.32-1.38-3.47-3.47-.15-2.16.93-3.63,3.1-3.71,4.31-.16,8.64-.2,12.96-.06,2.08.07,3.41,1.45,3.31,3.61-.09,2.07-1.31,3.44-3.44,3.57Z"/>
    <path class="cls-28" d="M453.17,429.3c-.05,4.06-2.45,4.98-7.19,4.97-135.47-.19-270.93-.16-406.4-.18-1.93,0-4.05.56-5.43-1.5,0,0,0,0,0,0-.01,3.48-.16,6.97,0,10.45.58,13.69,10.88,25.08,23.52,25.15,36.4.2,72.81.05,109.21.03,0,0,0,0,0,0,1.39-.82,2.97-1.44,4.13-2.51,3.67-3.39,2.04-6.99-4.17-9.43h0c-5.65.05-11.31.09-16.96.17-1.97.03-3.69-.41-4.54-2.36-.87-1.98-.16-3.54,1.58-4.71,1.42-1.73,3.4-1.04,5.13-1.04,86.54-.03,173.07-.03,259.61,0,1.74,0,3.71-.7,5.15,1.02h0c3.17,2.82,2.37,5.07-1,6.94-4.41,2.05-9.06.57-13.6.89-3.24.23-6.98-.73-8.07,3.73-1.14,4.68,2.84,5.63,5.71,7.32h0c10.11.02,20.22.15,30.32.03,8.9-.11,15.4-4.5,19.82-12.04,4.99-8.52,3.67-17.79,3.19-26.95ZM102.4,456.34c-3.99.14-7.98.04-11.97.04,0,.02,0,.05,0,.07-3.83,0-7.65,0-11.48,0-2.49,0-4.33-1.12-4.54-3.66-.22-2.76,1.96-3.93,4.2-3.95,7.97-.09,15.94.06,23.9.24,2.18.05,4.08,1.14,3.94,3.59-.13,2.24-1.84,3.59-4.06,3.67Z"/>
    <path class="cls-147" d="M45.09,432.78c132.26-.05,264.53-.05,396.79,0,4.66,0,8.97-.02,11.2-5.06l-.25-.37c-1.54-1.62-3.6-1.55-5.56-1.55-13.56,0-27.11-.22-40.67.11-.63,0-1.26,0-1.89.02-3.95-.16-7.91.02-11.85-.04-1.53-.15-3.05.03-4.58.01-7.4-.23-14.8-.06-22.2-.08-11.28.13-22.56.02-33.84.03-7.44,0-8.12-.54-10.76-7.71-.97-2.63-1.59-5.56-5.11-6.03-28.8-.34-57.6-.07-86.4-.12-.19,0-.25,0-.27,0-.04,0-.1,0-.23.02-5.07.32-5.57,1.23-3.51,5.73,1.19,2.61,3.39,4.77,3.97,7.84-4.99,1.12-6.94-2.17-8.9-5.25-7.34-11.51-15.09-22.75-22.61-34.14-1.28-1.94-2.43-3.99-4.41-5.36-6.05-1.74-9.38.63-11.8,8.39.06,1.93,1.09,3.47,2.02,5.05,1.17,2.02,2.44,3.97,3.8,5.86,3.41,4.75,3.37,5.57-1.56,8.54-7.55,4.55-15.21,8.94-22.54,13.84-3.76,2.51-7.66,3.61-12.17,3.6-20.05-.07-40.09-.17-58.92.03,16.76-9.71,33.98-20.65,51.34-31.36,5.04-3.12,10.09-6.23,15.04-9.49,4.78-3.14,10.14-5.48,14.03-9.88-1.53-6.37-4.87-11.56-10.17-15.44-7.87,3.59-15.13,8.1-21.26,14.28-11.21,6.8-21.9,14.43-33.46,20.67-1.69.15-3.25.76-4.66,1.63-11.26,7.03-22.61,13.9-33.67,21.24-1.7,1.13-3.1,2.57-3.79,4.5-1.08,2.99-3.24,3.84-6.22,3.8-6.64-.09-13.27-.07-19.91,0-2.12.02-4.4-.23-5.89,1.87-.02,1.55-.04,3.1-.06,4.65,0,0,0,0,0,0,3.66-.53,7.29.19,10.95.19Z"/>
    <path class="cls-147" d="M453.09,427.73c.02.52.05,1.04.08,1.57,0-.48-.01-1-.08-1.57Z"/>
    <path class="cls-147" d="M229.7,411.99c.1,0-.03,0,0,0h0Z"/>
    <path class="cls-147" d="M39.58,434.09c135.47.02,270.93-.01,406.4.18,4.74,0,7.14-.91,7.19-4.97-.03-.52-.05-1.05-.08-1.57-2.23,5.03-6.54,5.06-11.2,5.06-132.26-.06-264.53-.06-396.79,0-3.65,0-7.29-.71-10.95-.19,1.37,2.06,3.49,1.5,5.43,1.5Z"/>
    <path class="cls-138" d="M393.08,460.61c.64-2.32,2.08-3.69,4.14-4.25-6.3.01-12.59.02-18.89.04-2.77,0-5.72.09-5.58-3.85.05-1.49.57-2.3,1.31-2.75-18.05.09-36.1.25-54.15.17-14.71-.06-29.43-.11-44.14-.15.96.46,1.61,1.32,1.56,2.95-.1,3.11-2.75,3.63-5.53,3.62-19.98-.05-39.97-.01-59.95,0-.83,0-1.69.04-2.49-.13-2.19-.48-3.66-1.77-3.46-4.15.1-1.2.62-1.9,1.36-2.3-11.51.03-23.03.08-34.54.15-2.42.02-4.84-.06-7.25-.14,2.04.71,2.44,2.35,1.63,5.5.87.18,1.72.44,2.52.8,2.82,1.26,4.43,3.43,4.17,6.53-.34,4.14-3.63,4.94-6.92,5.57,0,0,0,0,0,0,11.97.04,23.94.12,35.91.12,65.69-.02,131.37-.05,197.06-.08,0,0,0,0,0,0-1.47-.72-3.28-.37-4.64-1.5-1.98-1.64-2.8-3.66-2.11-6.15Z"/>
    <path class="cls-138" d="M162.24,449.37c1.36.02,2.42.16,3.23.45,2.42.08,4.84.15,7.25.14,11.51-.08,23.03-.12,34.54-.15.72-.39,1.65-.5,2.63-.5,10.49,0,20.98,0,31.48,0v-.03c10.16,0,20.32-.02,30.48.02,1.34,0,2.83,0,3.92.53,14.71.04,29.43.09,44.14.15,18.05.08,36.1-.09,54.15-.17,1.13-.67,2.8-.5,4.26-.5,12.82,0,25.64.05,38.47.08-1.44-1.72-3.41-1.02-5.15-1.02-86.54-.03-173.07-.03-259.61,0-1.73,0-3.71-.69-5.13,1.04,5.11-.02,10.22-.12,15.33-.03Z"/>
    <path class="cls-138" d="M173.8,462.65c.26-3.1-1.36-5.27-4.17-6.53-.81-.36-1.65-.62-2.52-.8-.08.31-.17.63-.27.97,6.21,2.43,7.85,6.04,4.17,9.43-1.16,1.07-2.74,1.69-4.13,2.51,3.3-.63,6.58-1.43,6.92-5.57Z"/>
    <path class="cls-138" d="M394.13,460.94c1.09-4.46,4.83-3.49,8.07-3.73,4.53-.33,9.18,1.15,13.6-.89-6.19.01-12.38.02-18.57.04-2.06.56-3.5,1.93-4.14,4.25-.69,2.49.13,4.52,2.11,6.15,1.37,1.13,3.17.78,4.64,1.5-2.87-1.69-6.85-2.64-5.71-7.32Z"/>
    <path class="cls-7" d="M358.38,407.28c-7-1.39-11.68-5.07-12.48-12.6-.35-3.27-2.62-6.12-2.08-9.58,5.92,6.69,10.29,14.4,14.55,22.18Z"/>
    <path class="cls-110" d="M321.24,308.74c-.65-1.53-1.29-3.05-1.94-4.58-1.17-4.82-3.9-8.28-8.68-9.96-6.61-4.12-13.68-4.01-20.53-1.32-8.25,3.25-9.78,11.68-3.54,17.92,2.22,2.23,2.36,5.07,3.16,7.69,4.14,13.63,8.12,27.31,12.15,40.97-.49.27-.98.27-1.48.02-3.94-4.41-4.4-10.28-6.12-15.54-2.88-8.83-5.14-17.86-7.92-26.73-.62-1.97-1.81-3.51-2.99-5.12-6.14-8.35-2.53-19.26,7.37-22.47,7.61-2.47,14.88-1.26,22.01,1.8-6.59-3.9-13.99-3.38-21.22-3.78-1.14-.16-2.24-.41-2.88-1.51,3.13-3.68,7.25-4.22,12.85-1.71,9.3,1.18,16.04,6.04,20.47,14.24.62,3.42,2.06,6.89-.71,10.07Z"/>
    <path class="cls-63" d="M301.48,284.44c-4.33.48-8.96-1.16-12.96,1.79-1.19,1.81-3.15,2.78-4.66,4.26-5.21,5.14-6.56,4.73-9-2.42.02-.24.04-.48.06-.72-.23-.85-.47-1.71-.7-2.56,2.64-1.67,5.28-3.35,7.91-5.03,8.17-5.21,13.29-3.98,19.33,4.68Z"/>
    <path class="cls-23" d="M145.07,292.06c-4.41.03-8.82.05-13.24.08-2.51-6.73-7.72-11.73-11.35-17.76-3.13-5.18-6.83-10.02-10.28-15,1.68-2.57,3.36-5.14,5.05-7.71.54.55,1.08,1.1,1.62,1.65,4.14,3.45,6.47,8.25,9.3,12.65,4.01,6.25,8.78,11.98,12.54,18.1.34-3-2.65-6.53.52-9.72.5.09,1.08.27,1.2.74,1.48,5.67,3.18,11.28,4.64,16.96Z"/>
    <path class="cls-57" d="M335.62,357.31c-3.09-6.27-3.76-13.33-6.43-19.74.39-1.45,1.48-2.28,2.83-2.34,6.63-.26,13.33-1.59,19.79,1.16,3.44,1.96,6.76,4.08,9.38,7.13-9.4,2.96-17.48,8.39-25.57,13.79Z"/>
    <path class="cls-99" d="M351.81,336.4c-6.04.04-12.07.06-18.11.15-1.55.02-3.31-.62-4.52,1.03-.74-2.69-1.49-5.36-2.21-8.05-.77-2.86,0-4.3,3.29-4.29,2.52,0,5.27.82,7.57-1.05,5.14,3.52,9.37,8.07,13.98,12.21Z"/>
    <path class="cls-110" d="M323.96,317.39c-1.43-1.63-1.49-3.54-1.14-5.53,2.61.68,3.87,3.15,5.99,4.49.85.75,2.04,1.86.21,2.34-1.65.43-3.87.98-5.06-1.3Z"/>
    <path class="cls-116" d="M323.96,317.39c1.71.08,4.13,3.48,4.85-1.04,1.85.25,3,1.31,3.56,3.06-2.82-.61-6.43,2.06-8.41-2.02Z"/>
    <path class="cls-43" d="M153.45,205.41c-4.21,1.5-8.62,2.52-12.37,5.11-.44.34-.92.4-1.43.18-.91-.65-1.43-1.46-1.07-2.63.08-.5.16-1,.23-1.5,4.12-3.6,9.03-2.54,13.8-2.34.28.39.56.78.85,1.18Z"/>
    <path class="cls-15" d="M110.17,235.46c4.55-2.31,1.85-6.74,3.05-10.22,1.36-.02,3.89,2.42,3.82-1.46,1.13-.74,2.04-.02,2.51.76,3.96,6.62,9.5,12.34,11.42,20.12.27,1.8.26,3.61.17,5.42-.02.52-.09,1.03-.19,1.54-.91,2.98-.72,5.81.93,8.55,1.14,1.88,1.57,3.99,1.32,6.17-.13,1.18-.79,1.78-1.99.92-7.01-10.6-14.03-21.2-21.04-31.8Z"/>
    <path class="cls-100" d="M131.21,267.26c2.2-2.45.65-4.63-.6-6.72-1.8-3.01-2.8-5.96-.37-9.09,4.81,2.38,10.18-1.89,14.92,1.27-.17,2.22-1.91,3.1-3.6,3.54-3.57.92-3.93,3.1-3.44,6.29.57,3.69,1.57,7.4.9,11.21-.04.24-.09.48-.14.72-.76,3.74,1.61,7.32.66,12.25-8.62-11.23-16.07-22.02-22.67-33.4-.16-1.41-.33-2.82-.66-5.67,3.58,5.36,6.47,9.53,9.17,13.81,1.52,2.41,3,4.75,5.82,5.81Z"/>
    <path class="cls-62" d="M246.06,252.79c2.52,2.46,4.05,5.59,5.85,8.54,1.76,2.87,3.2,3.33,5.12-.09,4.85-8.64,9.96-17.13,14.96-25.68,1.29,1.94,2.58,3.88,3.87,5.82-2.52,6.98-6.7,13.12-9.86,19.78-.99,2.09-3.12,3.91-2.26,6.66.18,1.07-.46,1.69-1.24,2.23-1.89.74-3.22,2.11-4.27,3.8-2.23,1.97-4.63,3.67-7.33,4.95-.48.05-.93-.05-1.36-.27-3.89-4.66-9.07-8.27-11.45-14.16,1.2-4.86,3.81-8.75,7.96-11.58Z"/>
    <path class="cls-49" d="M261.85,270.02c.63-.74,1.27-1.48,1.9-2.21,1-.45,2-.9,3-1.35-.38,2.38-.76,4.76-1.14,7.14-1.03,1.75-2.39,2.01-4.06.89-.9-1.56-1.04-3.07.29-4.48Z"/>
    <path class="cls-79" d="M291.87,286.44c7.18.35,14.56-.42,20.97,3.99,1.5,1.03,2.99,2.05,4.33,5.52-5.5-4.48-10.77-5.83-16.24-6.33-10.56-.96-21.23,4.74-19.11,16.48.17.97.29,2.1.86,2.81,8.27,10.37,8.64,23.62,12.98,35.41,1.81,4.92,3.38,9.93,5.07,14.9-1.46,1.77-3.55,1.72-5.52,1.72-30.15.07-60.3.1-90.46,0-1.17,0-2.33-.13-3.44-.49-1.13-.5-2.29-1.18-.97-2.48,1.53-1.5,2.45-3.56,4.41-4.68,8.18-4.7,15.77-10.36,24.11-14.8,2.91-1.55,5.67-1.93,9.03-1.5,6.22.8,12.54-.09,18.83.07,4.31.11,8.63.07,12.95,0,8.1-.13,10.9-5.04,7.01-12.19-2.39-3.23-5.64-4.16-9.56-4.15-5.11.02-10.25.62-15.32-.47-2.74-2.25-.16-3.44,1.12-4.52,2.65-2.23,5.72-3.95,8.68-5.72,3.13-1.87,4.9-3.77,3.01-7.47-.37-.72-.3-1.61.02-2.42.96-1.39,2.31-1.78,3.9-1.56,1,.2,1.67.89,2.4,1.56.95.88,1.58,3.14,3.31,1.71,1.36-1.12-.02-2.67-.49-4-.61-1.73-2.39-3.28-.91-5.36.43-2.3-1.37-3.99-1.71-6.16,1.8-1.44,2.45,1.1,3.79,1.06,0,0-.02-.02-.02-.02.53.87.49,1.9.86,2.83,1.87,4.69,2.79,4.97,6.32,1.48,2.77-2.74,5.87-4.67,9.78-5.2Z"/>
    <path class="cls-8" d="M262.16,274.92c1.15-.44,2.3-.88,3.45-1.32,1.71,6.46,3.33,12.94,6.62,18.84.53,3.38-.89,4.84-4.28,4.37-4-6.75-7.09-13.74-5.79-21.89Z"/>
    <path class="cls-122" d="M267.94,296.13c2.53.05,4.17-.94,4.29-3.69.21-.03.42-.03.63,0,.89,2.11,1.65,4.28,2.71,6.3,1.04,1.99,1.45,3.68-.78,5.05-2.54,1.57-2.98-.97-4.1-2.13-.67-.7-1.21-1.52-1.81-2.29-.83-.93-1.89-1.8-.94-3.25Z"/>
    <path class="cls-83" d="M130.07,244.31c-3.47-7.4-7.65-14.34-13.02-20.53-.4-.44-.97-.82-.49-1.54,1.82-3.96,5.61-5.97,8.64-8.73,4.59,1.51,5.33,5.94,7.21,9.51-3.22,6.56-1.6,13.3-.68,20.01-.29.77-.67,1.42-1.66,1.28Z"/>
    <path class="cls-74" d="M121.71,204.23c4.31-4.34,7.57-4.33,11.53.13,1.08,1.22,1.94,2.63,2.89,3.95-2.64,2.23-5.83,3.42-8.98,4.7-2.25-.26-2.3-2.31-3.07-3.77-.79-1.67-1.58-3.34-2.38-5.01Z"/>
    <path class="cls-30" d="M124.08,209.23c.99,1.1,1.97,2.21,2.96,3.31,2.72.22,2.56,4.85,5.43,4.03,2.07-.59,3.12-3.24,4.92-4.68.77-.62,1.51-1.28,2.59-1.25.37-.04.73-.08,1.1-.12-.08.96-.16,1.91-.25,2.87-2.56,3.42-3.39,8.54-8.91,9.04-3.3-2.18-3.56-6.65-6.73-8.92-.87-1.29-1.48-2.66-1.11-4.28Z"/>
    <path class="cls-133" d="M139.98,210.64c-1.82,1.93-3.99,3.65-5.37,5.86-2.11,3.39-3.57,3.51-5.3-.13-.64-1.33-1.51-2.56-2.27-3.83,2.66-2.2,5.55-3.91,9.09-4.24.82-.08,1.63-.16,2.44-.24.47.86.94,1.72,1.41,2.58Z"/>
    <path class="cls-111" d="M195.09,120.48c1.29,2.27,2.59,4.54,3.88,6.81-6.9.08-13.83.56-20.7.12-6.39-.41-11.7.76-15.51,6.25-2.7-3.28-1.53-7.26,2.95-9.03,3.39-1.34,6.96-2.21,10.58-2.77,6.26-.53,12.64.58,18.8-1.38Z"/>
    <path class="cls-67" d="M176.29,121.87c-3.17,1.62-6.48,2.77-9.9,3.82-3.51,1.07-5.67,3.84-3.63,7.98-1.41,1.35-2.83,2.7-4.25,4.06-5.13-8.48-2.09-14.92,7.36-15.62,3.46-.26,6.95-.17,10.42-.24Z"/>
    <path class="cls-140" d="M297.72,214.38c-1.55,4.8,3.34,4.31,5.2,6.3q-.34,6.78-7.43,6.79c-6.16.01-12.32-.09-18.48.06-2.39.06-3.15-.68-3.1-3.1.14-6.32,0-12.65-.02-18.98q5.82-3.18,5.85,3.62c.02,2.98.08,5.95.16,8.93.05,1.95,1.23,3.23,3.04,3.25,2.31.03,1.7-2.06,1.72-3.38.14-7.44.17-14.88.23-22.33,3.34-2.62,6.39-5.46,7.31-9.88.42-.8,1.08-1.44,1.46-2.27,1.22-2.45,2.09-5.1,4.15-7.06,1.62-2.29,2.48-4.93,3.36-7.55.52-.33.59-.97.97-1.41,2.57-2.16,3.46-.88,3.69,1.79-.03.71-.22,1.36-.69,1.91-3.06,4.02-3.94,8.9-5.34,13.57.33,2.95-2.12,4.8-2.91,7.3l.02.4c-.89,2.98,3.05,4.47,2.28,7.41-.97,1.17-2.46,2.06-2.07,3.94.89,2.17,2.64,3.98,2.76,6.48-1.16,1.17-2.41,2.28-2.16,4.18Z"/>
    <path class="cls-129" d="M305.14,171.1c-.06-.51-.12-1.01-.18-1.52.17-2.8,3.53-5.31.76-8.39-1-2.9-2.05-5.8.58-8.44.95,0,1.9,0,2.86,0,2.79,1.87-.93,4.88,1.23,6.84,2.06.18,3.72-1.15,5.65-1.4.18,3.54,1.39,7.22-1.41,10.36-1.89.98-2.95-.5-4.53-1.65-.18,1.61-.25,3.14-1.1,4.4-1.32.62-2.61.52-3.86-.2Z"/>
    <path class="cls-71" d="M297.81,176.36l-3.4,8.04c-3.14,1.29-6.28,2.56-9.34-.16-.06-1.65-.08-3.3-.18-4.94-.14-2.19.97-2.87,3.01-2.84,3.3.05,6.61-.05,9.92-.09Z"/>
    <path class="cls-40" d="M299.19,199.78c-1.04-2.38-4.6-3.99-2.28-7.41,2.79,2.29,6.07.56,9.06,1.1,2.15.39,5.7-1.43,5.67,2.72-.03,4.13-3.53,2.99-6.02,3.16-2.14.15-4.29.28-6.43.42Z"/>
    <path class="cls-96" d="M299.88,210.2c-1.37-1.97-3.93-3.43-2.76-6.48,3.47-.01,6.95-.03,10.42-.04,2.04,0,4.24-.08,4.22,2.84-.02,3-2.14,3.22-4.5,3.21-2.46-.01-4.97-.38-7.38.48Z"/>
    <path class="cls-107" d="M279.92,185.98c-.67,3.48.82,7.14-.93,10.53-3.99-2.65-6.34-6.04-4.93-11.09,2.1-1.34,4.14-2.04,5.86.57Z"/>
    <path class="cls-38" d="M273.9,184.75c-.01-1.81.02-3.62-.05-5.43-.07-2.11.92-2.92,2.99-2.92,2.09,0,3.02.88,2.94,2.96-.07,1.64-.03,3.29-.04,4.94-1.87,1.16-3.87.54-5.84.45Z"/>
    <path class="cls-109" d="M298.76,163.44c.62-2.34-1.16-5.14,1.37-7.12,3.98-.52,5.02,2.29,5.93,5.25-.95,1.79-2.75,2.14-4.45,2.65-1.06.17-2.05.06-2.84-.78Z"/>
    <path class="cls-134" d="M309.78,160.39c-1.3.69-2.17.71-1.71-1.16.53-2.13,1.56-4.17,1.09-6.47,2.57.12,4.49,1.28,5.67,3.58-1.16,2-3.02,3.13-5.06,4.05Z"/>
    <path class="cls-134" d="M305.96,161.38c-1.64-2.04-3.08-4.32-5.84-5.06,1.64-1.93,3.63-3.27,6.2-3.57-1.34,3.01.08,5.88.43,8.81-.32.21-.59.15-.79-.18Z"/>
    <path class="cls-16" d="M296.89,191.96c.39-2.67.9-5.28,2.91-7.3,3.74.34,3.52,2.11,1.37,4.22-1.24,1.22-2.84,2.07-4.28,3.09Z"/>
    <path class="cls-44" d="M273.9,184.75c1.95-.15,3.89-.3,5.84-.45,1.78.56,3.56.62,5.33-.07,3.12.05,6.23.1,9.35.16-.16.91-.79,1.27-1.61,1.43-2.64,1.4-5.27,1.46-7.87-.1-1.71-.66-3.35-.03-5.01.26-1.84-1.39-3.9-.51-5.86-.57-.18-.19-.23-.41-.15-.66Z"/>
    <path class="cls-103" d="M309.01,171.3v-6.1c2.45.31,3.19,3.37,5.63,3.35-1.38,1.93-3.72,1.91-5.63,2.75Z"/>
    <path class="cls-148" d="M309.78,160.39c1.33-1.79,2.67-3.57,5.06-4.04.4.62.8,1.23,1.21,1.85-1.41,2.68-3.72,2.77-6.26,2.2Z"/>
    <path class="cls-119" d="M298.76,163.44l2.87.1c3.18,1.38,1.36,3.05.27,4.68-.24.2-.49.4-.73.59-1.15-1.64-3.49-2.73-2.41-5.37Z"/>
    <path class="cls-75" d="M246.06,252.79c-2.47,3.84-4.95,7.68-7.42,11.53-3.84-.52-4.08-4.15-5.69-6.6,1.12-5.32,5.61-7.14,9.7-9.37,1.14,1.48,2.27,2.97,3.41,4.45Z"/>
    <path class="cls-45" d="M153.1,217.54c5.02-.8,9.78-.19,14.39,2.09,2.65,1.31,5.53,2.11,8.59,1.86,1.41-.11,2.68-.28,2.63-2.14,2.62.32,5.25.88,7.87.89,4.7.02,8.63-1.93,10.22-6.51,1.2-3.43,3.24-3.64,6.13-3.13,8.98,1.58,16.76,5.42,22.75,12.38,3.35,3.89,6.86,7.7,9.43,12.21.62,4.85-3.74,4.86-6.37,6.56-.48.06-.95-.03-1.38-.24-3.09-2.62-5.36-5.9-7.5-9.63.12,1.52.84,2.74,0,3.95-1.36,1.32-1.49,2.85-.88,4.57.61,1.7.75,3.31-1.45,4.05-13.31.91-26.62.64-39.92.17-4.54-1.32-6.69-5.69-10.36-8.15-1.91-1.28-3.79-2.62-5.63-4.01-2.15-1.62-.51,1.56-1.6,1.2-2.4.71-4.84,1.38-4.84,4.62-4.13,2.04-8.31,2.53-12.6.48-2.56-7.14-.07-13.11,4.32-18.64,1.58-1.99,4-2,6.18-2.59Z"/>
    <path class="cls-89" d="M228.03,241.59c1.92-2.62,6.41-2.39,7.09-6.39,1.92,1.43,2.18,4.3,4.62,5.27-3.02,2.39-6.3,4.36-9.81,5.93-1.34-1.32-2.43-2.75-1.89-4.81Z"/>
    <path class="cls-11" d="M153.1,217.54c-8.04,3.9-10.94,10.04-9.96,21.09.08.52-.06.96-.45,1.32-3.86,1.27-7.25,4.22-11.72,3.34-.37-1.77-.52-3.63-1.16-5.3-2.15-5.62-.42-10.63,2.11-15.57,4.04-1.96,4.95-7,8.91-9.04,3.59,2.87,7.66,4.31,12.27,4.15Z"/>
    <path class="cls-106" d="M284.93,185.73c2.63-.45,5.25-.37,7.87.09-.21,5.22-2.62,8.65-7.9,9.74,0-3.28.02-6.56.03-9.84Z"/>
    <path class="cls-3" d="M218.91,243.36c-.65-1.45-1.46-2.85-1.9-4.35-.68-2.31.02-3.81,2.79-3.55,3.11,1.38,3.33,4.75,4.94,7.16.85,2.24,2.78,4.04,2.75,6.65,1.78,2.98,3.56,5.97,5.34,8.95,5.09,7.03,9.28,14.56,12.99,21.99.75-1.23,2.1-2.45,4.32-2.16.15.08.31.14.47.19,2.73-.34,4.2-3.7,7.34-3.05.52.63.62,1.35.45,2.12-1.35,2.91-4.28,4.1-6.69,5.66-6.63,4.3-13.35,8.49-20.13,12.56-.73.44-1.51.65-2.36.58-2.32-1.55-2.98-5.32-6.7-5.02-11.52-3.59-23.51-3.98-35.37-5.24-7.91-.84-15.81-1.78-23.71-2.68-5.63-.64-5.99-1.59-4.59-6.98.43-1.67.42-3.29-.07-4.9-1.24-4.14-1.86-8.42-2.85-12.62-.3-2.45-1.67-4.87-.28-7.39,4.87-1.53,7.17-.47,8.48,4.21,1.28,4.59,2.21,9.27,3.1,13.96.46,2.44,1.44,4.37,4.07,4.99,8.52,1.26,17.11,1.79,25.64,2.74,6.47,1.34,13.1,1.67,19.59,2.95,4.77.94,9.37,2.27,13.26,5.23,2.83,2.16,5.14,1.57,7.51-.53,2.52-2.22.7-4.16-.42-6.12-.65-1.15-1.36-2.27-1.85-3.5-.92-2.62-2.51-4.89-3.89-7.26-1.23-1.91-2.25-3.94-3.27-5.97-1.17-2.4-2.26-4.85-3.74-7.09-1.22-1.88-2.22-3.88-3.23-5.88-.71-1.86-2.13-3.48-1.99-5.64Z"/>
    <path class="cls-139" d="M250.13,278.04c-3.43,3.42-5.6,2.76-7.67-1.67-2.89-6.2-6.4-12.12-9.65-18.16.03-.17.07-.34.12-.5,2.94,1.3,3.04,5.05,5.69,6.61,3.83,4.57,7.67,9.15,11.5,13.73Z"/>
    <path class="cls-141" d="M227.48,249.26c-1.12-1.97-2.25-3.93-3.37-5.9.82-1.29,1.87-2.19,3.5-2.17.14.14.28.27.43.4.79,1.54,2.17,2.85,1.9,4.81-.76,1-2.43,1.22-2.45,2.86Z"/>
    <path class="cls-10" d="M345.55,197.32c-.07,1.17-.75,1.83-1.84,1.95-1.3.14-2.33-.41-2.44-1.81-.09-1.14.7-1.82,1.79-1.96,1.34-.17,2.19.48,2.49,1.82Z"/>
    <path class="cls-101" d="M303.18,365.08c-6,1.48-11.45,4.25-17.01,6.87-10.07,4.73-20.31,4.72-30.17-.64-9.06-4.92-18.35-7.74-28.67-4.94-1.43.39-2.9.77-4.22,1.42-6.96,3.43-13.66,7.5-21.59,8.48-3.52-3.56-5.96-7.89-8.52-12.13,1.03-3.41,3.89-4.21,6.89-4.8,33.62-.05,67.23-.09,100.85-.14.38.09.75.18,1.13.27.58,1.83,1.48,3.59,1.32,5.6Z"/>
    <path class="cls-4" d="M199.88,359.35c-2.3,1.6-4.59,3.2-6.89,4.8-7.69-9.57-13.91-20.17-20.91-30.21-1.79-2.57-3.05-5.55-5.57-7.6-.51-.67-1.03-1.35-1.54-2.02-.79-3.24-4.11-4.82-5.16-7.88,5.1,2.25,8.05,6.81,10.57,11.24,4.28,7.5,10.04,13.97,14.11,21.57.48.9,1.22,2.07,2.72,1.62-1.48-7.16-.13-6.47,8.66-12.52.62-.48,1.28-.59,1.98-.2-.02,3.51-3.28,4.16-5.29,5.84-3.31,2.77-3.22,3.25.42,9.18,1.87,3.05,3.74,3.15,6.5,1.39,9.08-5.79,18.33-11.3,27.31-17.25,3.35-2.22,6.82-3.3,10.81-2.34,9.34-.07,18.67-.03,28-.04,9.52-.01,9.6-.08,11.31-9.26.23-.56.59-1.01,1.09-1.35,3.13,3.44,2.12,7.22.37,10.65-1.61,3.15-4.89,3.41-8.21,3.48-9.93.22-20.15,1.27-29.71.03-10.96-1.42-16.82,5.57-24.63,9.55-3.49,1.78-6.53,4.46-10.06,6.13-2.59,1.22-2.5,5.12-5.86,5.18Z"/>
    <path class="cls-60" d="M145.93,323.42c-.15-1.9,0-3.65,2.32-4.14,2.53-.54,2.74,1.65,3.56,3.11-1.51,2.9-3.45,3.41-5.88,1.03Z"/>
    <path class="cls-124" d="M228.89,295.79c9.54-6.03,19.07-12.05,28.61-18.08,4.92,7.4,4.4,11.91-2.39,16.77-12.04,8.62-24.57,16.53-36.7,25.01-4.91,3.43-9.93,6.69-14.71,10.31-1.95,1.48-3.88,3.24-6.69,2.74-1.54-8.22,1.59-14.96,7.06-20.68,3.3-3.45,7.2-6.34,10.82-9.48.69-.85,1.08-1.93,1.99-2.61,2.65-1.57,4.78-4.18,8.23-4.2,1.26.13,2.5.47,3.78.22Z"/>
    <path class="cls-104" d="M225.48,296.46c-3.52-.12-5.29,3.44-8.48,4.01-1.97.08-3.41-1.06-4.88-2.14-.26-.25-.52-.5-.77-.75-1.63-3.85-4.58-5.17-8.68-5.14-9.58.08-19.16-.13-28.73-.23-3.85-1.71-8.06-1.84-12.1-2.67-8.08-1.67-13.03-6.17-14.32-14.46-.38-2.46-1.21-4.84-1.6-7.3-1.21-7.54,3.44-11.47,11.05-9.37,1.27,4.95,2.59,9.89,3.79,14.86.22.93.39,2.31-.1,2.91-5.22,6.28,1.08,5.32,3.8,5.64,14.01,1.68,28.05,3.02,42.08,4.53,5.94.64,11.86,1.47,17.36,4.02,4.37,2.32,4.42,2.51,1.58,6.07Z"/>
    <path class="cls-6" d="M197,332.54c19.99-13.6,39.97-27.21,59.97-40.8,2.31-1.57,3.35-3.32,2.23-6.28-.93-2.45-1.16-5.16-1.7-7.76.59-.68.58-1.44.31-2.24-.55-.64-.49-1.28.02-1.91.55-2.08,1.06-4.2,4.03-3.53.1,1.63.21,3.26.31,4.9.97,7.34,3.34,14.29,5.78,21.22.31,1.08.62,2.17.94,3.25-1.45-.13-2.75.33-4.01.98-1.42-.32-1.95-1.71-3-2.47-1.34-.89-2.52-.43-3.68.41-9.86,7.09-20.27,13.4-29.84,20.91-9.12,6.34-18.18,12.77-27.37,19-.96.65-2.05,1.22-3.16.17-.66-.01-1.31-.03-1.97-.04,1.73-1.67,1.86-3.66,1.14-5.81Z"/>
    <path class="cls-77" d="M127.97,305.25c1.28-4.83.12-6.62-4.55-6.76-6.46-.19-12.93-.26-19.39-.38,1.15-.93,2.53-.69,3.83-.69,28.74,0,57.48.04,86.22.06-.07,7.11-1.05,8.15-8,8.12-19.37-.09-38.74-.23-58.12-.35Z"/>
    <path class="cls-13" d="M212.12,298.33c2.1-.38,3.46.93,4.87,2.13-.24,1.15-.66,2.1-2.12,1.91-.92-1.35-1.84-2.7-2.76-4.05Z"/>
    <path class="cls-29" d="M156.97,258.41c-.17.01-.33,0-.5.03-10.47,1.86-10.75,2.28-8.47,12.46.54,2.41,1.06,4.83,1.66,7.24,1.18,4.75,4.11,7.84,8.89,9.01,3.53.86,7.14,1.4,10.61,2.43,1.69.5,4.24-.11,4.77,2.64-9.62-.05-19.24-.1-28.86-.15-4.57-4.99-3.61-11.92-6.19-17.6,0,0-.04-.05-.04-.05-1.2-2.95,0-5.09,2.31-6.87,2.39-1.86,3.52-4.16,3.21-7.33-.64-6.65-.46-6.78,6.3-8.8,1.74-.33,3.59-1.82,5.08.47.4,2.18.81,4.37,1.21,6.55Z"/>
    <path class="cls-123" d="M291.87,286.44c-3.95,2.04-7.98,3.95-10.97,7.41-2.01,2.33-3.44.97-4.7-.84-1.19-1.7-1.61-3.61-1.29-5.68q3.66,5.92,9.36,1.1c1.26-1.07,2.45-2.21,4.25-2.2,1.11.07,2.23.14,3.34.21Z"/>
    <path class="cls-41" d="M155.75,251.86l-5,.59c-1.86.69-3.73.64-5.61.08-2.92.77-5.99-.72-8.99,1.47-2.26,1.65-3.48-2.61-5.92-2.56-.15-.31-.14-.62.01-.93,5.21-4.73,11.86-5.73,18.37-7.15,4.5-.48,9-.7,13.49.11,1.97.72,2.88,2.4,3.76,4.11,1.3,2.67,1.9,5.58,2.79,8.4.63,1.77,1.55,3.4,2.36,5.09,1.19,2.58,1.32,5.53,2.83,8,.52.89.99,1.79,1.31,2.78,1.2,4.54-1.41,4.44-4.53,3.71-2.56.43-3.77-.47-4.24-3.22-.88-5.18-2.55-10.24-3.26-15.44-.66-4.83-2.95-6.24-7.38-5.02Z"/>
    <path class="cls-120" d="M148.06,244.63c-6.25,1.02-11.87,3.95-17.81,5.89-.66-2.05-.52-4.12-.18-6.2.3-.34.61-.68.91-1.02,3.97-1.27,7.64-3.48,11.88-3.92,2.11,1.37,3.39,3.58,5.2,5.25Z"/>
    <path class="cls-26" d="M145.14,252.54c1.87-.03,3.74-.05,5.61-.08-4.86.93-6.78,3.28-4.97,8.45,1.2,3.42-1.15,6.15-3.92,7.81-2.36,1.42-3.05,3.24-3.02,5.69-1.82-5.01-1.46-10.34-2.23-15.5-.35-2.36,1.65-2.66,3.05-3.23,1.99-.8,4.15-1.21,5.47-3.14Z"/>
    <path class="cls-151" d="M257.82,273.55c0,.64-.01,1.28-.02,1.91-2.72.1-4.21,3.38-7.2,2.76,2.1-2.03,4.56-3.51,7.22-4.68Z"/>
    <path class="cls-27" d="M263.02,297.28c.62,1.03,1.23,2.06,1.85,3.09.39,1.09.57,2.33,1.2,3.25,2.29,3.38.35,4.65-2.34,6.51-4.33,2.99-9.49,4.85-12.88,9.15-5.05,2.92-10.43,1.41-15.7,1.15-3.87-2.49-.92-4.14.89-5.54,5.5-4.27,11.44-7.94,17.4-11.51,3.26-1.95,5.98-4.73,9.58-6.1Z"/>
    <path class="cls-51" d="M234.1,319.32c5.58-.01,11.17-.03,16.75-.04,5.93.07,11.87.39,17.78.14,4.27-.18,7.39,1.06,9.35,4.9-.08.42-.16.83-.25,1.25-1.34,1.2-3.01,1.33-4.67,1.32-11.26-.04-22.52.37-33.78-.21-3.47-.68-4.68-3.8-6.6-6.16,0-.95.27-1.59,1.41-1.21Z"/>
    <path class="cls-149" d="M301.9,168.22c.29-1.58,1.76-3.23-.27-4.68,1.44-.72,2.89-1.44,4.33-2.16.25.12.51.18.79.18,2.87,3.44-.29,5.54-1.78,8.02.24-3.31-1.47-2.2-3.06-1.36Z"/>
    <path class="cls-93" d="M218.91,243.36c1.63,1.33,2.11,3.32,2.9,5.13-1.27,1.33-2.96,1.42-4.6,1.41-12.06-.02-24.11.36-36.16-.19-.57-.08-1.13-.24-1.65-.48-1.83-1.27-3.13-2.95-3.77-5.11.06-.26.12-.52.19-.77,14.37,0,28.74,0,43.11.01Z"/>
    <path class="cls-91" d="M148.06,244.63c-4.14.63-3.98-3-5.2-5.25.09-.25.19-.5.29-.74,3.97-.54,8.16.85,11.94-1.35,2.05-.31,4.1-.49,6.15-.04,1.91,1.55,2.09,3.77,2.28,5.98-.09.5-.31.93-.67,1.29-4.94-.23-9.87-.55-14.8.12Z"/>
    <path class="cls-64" d="M162.96,243.34c-.71-2.01-1.42-4.02-2.13-6.03-1.26-1.04-2.08-2.19-.94-3.82-.32-3.13,1.23-2.84,3.08-1.6,4.8,3.22,9.44,6.64,12.83,11.45,0,0,0,.02,0,.02-4.29,2.35-8.57,2.35-12.85-.03Z"/>
    <path class="cls-86" d="M227.61,241.18c-1.09.85-1.79,2.32-3.5,2.17-1.44-2.63-2.87-5.27-4.31-7.9-.65-1.97-1.29-3.94-1.94-5.91.34-.21.68-.42,1.02-.63,2.91,4.09,5.82,8.18,8.73,12.26Z"/>
    <path class="cls-92" d="M159.9,233.5c.31,1.27.62,2.55.94,3.82-1.92,1.25-3.83,1.34-5.74-.03-1.49-5.18,2.33-3.63,4.8-3.78Z"/>
    <path class="cls-121" d="M178.92,248.39c14.3.03,28.59.06,42.89.1,1.07,1.95,2.14,3.9,3.21,5.84-.72,3.42-3.59,2.35-5.58,2.39-9.26.18-18.54.31-27.8-.03-3.82-.14-4.7.97-3.47,4.34-.21.58-.6.98-1.16,1.24-5.73.68-11.48,1.84-17.01-.96-.7-1.63-1.41-3.26-2.11-4.89,0-2.6,2.15-1.84,3.53-2.2.77-.2,1.62-.08,2.44-.09q6.26-.1,5.07-5.73Z"/>
    <path class="cls-95" d="M235.93,274.39c.66,1.15,1.29,2.31,1.98,3.44,3.85,6.34,3.68,6.82-2.88,10.24-1.35.7-2.47,1-3.62,0-8.2-7.19-18.55-7.17-28.48-8.62-1.79-.26-3.55-.68-5.33-1.03-1.62-1.44-3.84-2.58-2.57-5.4.49-.36,1.02-.61,1.6-.77,11.38-.76,22.77-.27,34.16-.29,2.06,0,3.92.57,5.14,2.43Z"/>
    <path class="cls-33" d="M173.88,271.42c-.3-.69-.59-1.39-.89-2.08-1.14-2.9,1.22-2.82,2.81-3.08,2.44-.39,4.96-.39,7.4-.12,3.65.4,5.18-.91,4.58-4.57l.22-.29c1.78-1.62,4.02-1.43,6.16-1.44,9.32-.06,18.64-.04,27.97-.02,2.35,0,4.69.06,6.62,1.68,1.03,1.96,2.05,3.92,3.08,5.88-1.87,1.88-4.3,1.42-6.55,1.44-8.75.07-17.5.12-26.25-.01-3.27-.05-4.55,1.16-3.93,4.35l-.24.32c-6.55,2.97-17.43,1.9-20.95-2.06Z"/>
    <path class="cls-143" d="M228.73,261.51c-13.58-.07-27.17-.15-40.75-.22-1.32-1.81-3.95-3.77-3.11-5.68.99-2.26,3.82-.11,5.84-.15,10.06-.2,20.13-.06,30.2-.08,1.42,0,3.03.44,4.09-1.05,1.24,2.39,2.48,4.79,3.72,7.18Z"/>
    <path class="cls-94" d="M195.07,273.16c-.55-.62-1.17-1.19-1.64-1.86-1.86-2.66-1.69-4.01,2.11-3.97,12.09.13,24.18.05,36.27.05,1.8,2.08,3.16,4.43,4.12,7.01-1.93-1.26-4.1-1.01-6.23-1.02-11.54-.06-23.08-.14-34.63-.21Z"/>
    <path class="cls-118" d="M173.88,271.42c2.43,2.43,5.53,1.81,8.48,1.86,4.16.07,8.32.13,12.48.2.92,1.65,1.85,3.29,2.77,4.94-9.04-.49-18.07-1.12-26.97-2.88,2.85.02,4.86-.62,3.24-4.12Z"/>
    <path class="cls-1" d="M225.48,296.46c1.76-2.62.79-4.53-1.58-6.07,4.04-.4,4.54,2.48,4.99,5.4-.91,1.36-2,1.85-3.41.67Z"/>
    <path class="cls-52" d="M232.76,320.35c3.21.3,3.57,3.41,5.2,5.27,2.92,4.19,2.38,6.94-2.03,10.4-3.08-1.29-5.46.4-7.85,1.9-9.43,5.91-18.94,11.72-28.24,17.85-3.57,2.35-5.58,2.21-7.8-1.71-4.35-7.68-4.54-7.56,2.34-12.87,1.18-.91,2.3-1.87,3.45-2.81,10.38-5.99,19.9-13.25,29.66-20.17,2.39-.86,4.02.16,5.27,2.13Z"/>
    <path class="cls-58" d="M235.93,336.02c2.17-3.18,3.47-6.53,2.03-10.4,13.26-.01,26.52-.03,39.78-.04.98,8.52-1.12,11.03-9.46,10.87-10.78-.21-21.58.62-32.35-.42Z"/>
    <path class="cls-24" d="M232.76,320.35c-1.76-.71-3.51-1.42-5.27-2.13,10.02-8.03,21.45-14.06,31.41-22.19,1.67-1.36,3.04-.13,4.13,1.25-5.1,6.44-13.08,8.83-19.24,13.74-3.32,2.64-8.17,3.56-9.68,8.3-.44.34-.89.68-1.34,1.02Z"/>
    <path class="cls-87" d="M187.77,261.57c.73,1.76,3.21,3.33,2.34,5.01-.93,1.78-3.59.67-5.48.76-2.78.14-5.58.04-8.37.05-1.47,0-3.09-.2-3.28,1.96-2.16-2.25-1.77-5.44-3-8.04,5.93.09,11.85.18,17.78.27Z"/>
    <path class="cls-39" d="M178.92,248.39c.91,2.21,4.76,3.43,3.43,5.99-1.21,2.32-4.53.62-6.89.99-2.52.4-5.28-.93-7.59,1.04-.94-2.71-1.88-5.42-2.82-8.12,4.63-2.18,9.25-2.13,13.84.12l.02-.02Z"/>
    <path class="cls-45" d="M178.9,248.41c-4.61-.04-9.23-.08-13.84-.12-.73-1.26-1.47-2.52-2.2-3.78.03-.39.07-.78.1-1.17,4.28,0,8.57.02,12.85.03.84,1.8,3.07,2.74,3.09,5.04Z"/>
    <path class="cls-130" d="M109.61,79.04c-3.49,0-6.98-.04-10.47.01-3.36.05-6.37-1.01-6.45-4.66-.09-3.75,2.82-4.85,6.28-4.59,1.32.1,2.67-.09,3.99.05,3.44.36,5.73-.1,6.8-4.31,1.26-4.93,6.36-7.12,11.14-5.84,5,1.35,8.23,6.11,7.69,11.35-.53,5.15-3.8,7.94-9.5,8.02-3.16.04-6.32,0-9.48,0,0-.01,0-.02,0-.04Z"/>
  </g>
</svg>