<?xml version="1.0" encoding="UTF-8"?>
<svg id="Camada_1" data-name="Camada 1" xmlns="http://www.w3.org/2000/svg" version="1.1" viewBox="0 0 500 500">
  <defs>
    <style>
      .cls-1 {
        display: none;
      }

      .cls-1, .cls-2 {
        fill: #fff;
        stroke-width: 0px;
      }
    </style>
  </defs>
  <g id="Camada_2" data-name="Camada 2">
    <rect class="cls-1" y="-2.6" width="500" height="505.7"/>
    <g id="Camada_3" data-name="Camada 3">
      <path class="cls-2" d="M94.6,188.5c37.8-1,75.2,5.1,112.4,13.1,11.7,2.5,23.5,4.9,35.3,6.9,9.5,1.6,18.9-.4,28.1-2.4,24.5-5.5,49-10.7,74-13.9,28.1-3.6,56.4-4.5,84.7-3.2,19.9.9,39.7,2.8,59.5,5.4,7.1.9,8.6,2.7,8.7,9.8,0,6.9,0,13.9,0,20.8,0,4.1-1.2,6.7-5.7,8-11.3,3.3-15.8,10-16.3,22.2-.6,16.1-1.1,32.2-5,48-7.3,29.2-28.5,47.3-58.5,50-23.5,2.1-46.9,1.7-70.2-1.8-28.3-4.2-47.1-20.5-59.1-45.9-6-12.7-10-26-13.6-39.5-1.7-6.3-3.8-12.4-8.7-17.2-8.8-8.5-21.9-7-28.3,3.4-4.3,7-5.7,15-8,22.7-5.3,17.5-12.1,34.2-23.4,49-13.2,17.3-31.2,25.5-52.1,28.3-20.1,2.7-40.3,2.7-60.5.8-29.6-2.8-51.3-22.5-57.5-51.9-3.2-14.9-3.4-30-4.1-45.1-.2-3.6-.5-7-1.7-10.4-2.3-6.4-6.8-10.1-13.5-11.4-7.7-1.6-8.4-2.5-8.4-10.4,0-6.8,0-13.6,0-20.4,0-5.7,1.9-8.2,7.4-9,16.4-2.4,32.8-4,49.3-5.1,11.6-.8,23.2-1.2,35.2-.8h0ZM50.9,274.1c24-20.7,47.6-40.9,71.6-61.6-4.7-.3-8.4-.7-12.1-.8-12-.5-24-1.3-36,.6-14,2.2-23,10.5-23.5,22.7-.5,12.8-.1,25.7-.1,39.2h0ZM360.2,212.2c-.1-.3-.2-.6-.3-.8-3.6.3-7.3.5-10.9.8-12.7,1.1-25.4,1.9-37.6,5.8-10.4,3.3-17.9,9.9-18.9,21-1,10.7-.2,21.6-.2,33,22.9-20.2,45.4-40,68-59.9h0Z"/>
      <path class="cls-2" d="M251.7,159.6H91.6c-3,0-5.9,0-8.9.7-6.1,1.2-10.6,4.6-12.9,10.4-.6,1.6-1.1,2.6-3.1,2.7-8.3.5-16.7.9-24.9,2.3-2.4.4-2.8-.6-2.8-2.8,0-22.1-.3-44.2,0-66.2.3-19.5,16.5-34.7,36.9-35.3,9.6-.3,19.2,0,28.9-.1,2.5,0,3,.8,3.1,3.1,0,7.5-.6,15,.6,22.5,1.9,12.1,13.6,20.9,26.8,20.2,11.5-.6,22.3-11.6,22.6-23,.2-6.5.2-13,0-19.5-.1-2.8.9-3.3,3.4-3.3,19.7,0,39.3,0,59,0,3,0,3.8.8,3.8,3.8.1,7.6-.9,15.3.8,22.8,2.9,12.5,15.1,20.7,28.5,19.2,11.2-1.2,21.4-12.9,21.5-24.8,0-5.9.2-11.9,0-17.8-.1-2.7.8-3.3,3.4-3.3,20.4,0,40.8,0,61.1,0,2.7,0,3.7.6,3.6,3.5-.2,7.1-.6,14.2.2,21.2,1.5,13.3,12.9,22,26.6,21.2,12.2-.8,22.7-11.9,23-24.7.1-6.1,0-12.2,0-18.2,0-1.7,0-3,2.4-2.9,12.3.4,24.6-.9,36.9.7,18.1,2.3,31.7,17.3,32,35.5.4,22.1,0,44.1.2,66.2,0,2.7-1,3-3.3,2.7-7.8-1.1-15.6-2.4-23.6-2.4-1.9,0-2.7-.9-3.5-2.4-4.1-8.3-10.9-12-20.2-12-54.1.1-108.1,0-162.2,0h0Z"/>
      <path class="cls-2" d="M39.1,350.8c8.1,7.8,17.1,12.1,26.7,15.1,2.6.8,2,2.7,2,4.5,0,17.5.3,35.1-.1,52.6-.2,8.3,4.6,13.8,14,13.8,111.4-.2,222.7-.2,334.1-.2,3,0,5.9,0,8.9,0,6.4,0,9.6-3.1,9.6-9.7,0-14.4-.2-28.9-.2-43.3,0-4.7,0-9.3,0-14,0-2,.4-3.1,2.4-3.7,10.3-2.8,19.2-8,27.2-14.9,1.4.8.7,2.1.7,3.1,0,24.8.1,49.5,0,74.3-.1,22.7-18.8,41.2-41.5,41.2-113.6,0-227.3,0-340.9,0-20.3,0-36.7-12-41.4-30.3-.7-2.6-1.3-5.3-1.3-7.9,0-26.5,0-52.9,0-80.6h0Z"/>
      <path class="cls-2" d="M264.7,68c0,7.5.1,15,0,22.5-.1,7.3-5.4,13.4-12.3,14.6-6.4,1.1-13.1-2.7-15.7-8.9-1-2.3-.9-4.7-.9-7.1-.2-14.3-.3-28.6-.4-42.9,0-10.3,5.2-15.9,14.6-15.9,8.9,0,14.8,6.3,14.9,16,0,7.2,0,14.4,0,21.6h0Z"/>
      <path class="cls-2" d="M353.1,67.3c0-7.3,0-14.7,0-22,0-8.4,6.2-14.7,14.2-14.8,8.6-.1,15.3,5.9,15.4,14.5.1,14.8,0,29.7-.2,44.5-.2,9.5-6.6,15.9-15.2,15.8-8.1-.1-14-7-14.1-16.3,0-7.2,0-14.4,0-21.6h0Z"/>
      <path class="cls-2" d="M119.5,67.9c0-7.6,0-15.3,0-22.9.1-8.9,5.7-14.5,14.1-14.6,8.5,0,14.9,6.3,14.9,15,0,14.8,0,29.7,0,44.5,0,8.6-6.7,15.3-14.8,15.3-7.1,0-14.8-7.1-14.3-15.3.5-7.3,0-14.7,0-22h0Z"/>
      <path class="cls-2" d="M141.1,381.4c0,2,1.6,3.6,3.6,3.6h20.1c2,0,3.6-1.6,3.6-3.6v-20.1c0-.2,0-.4,0-.5-9-.3-17.9-.7-26.8-1-.2.5-.4,1-.4,1.6v20.1h0Z"/>
      <path class="cls-2" d="M194,385h20.1c2,0,3.6-1.6,3.6-3.6v-19.4c-9.1-.1-18.2-.3-27.2-.6v20c0,2,1.6,3.6,3.6,3.6h0Z"/>
      <path class="cls-2" d="M243.3,385h20.1c2,0,3.6-1.6,3.6-3.6v-19.1c-4.1,0-8.3,0-12.5,0-4.9,0-9.8,0-14.7,0v19.1c0,2,1.6,3.6,3.6,3.6h0Z"/>
      <path class="cls-2" d="M292.7,385h20.1c2,0,3.6-1.6,3.6-3.6v-19.7c-9,.2-18.1.3-27.2.5v19.2c0,2,1.6,3.6,3.6,3.6h0Z"/>
      <path class="cls-2" d="M338.4,381.4c0,2,1.6,3.6,3.6,3.6h20.1c2,0,3.6-1.6,3.6-3.6v-20.1c0-.4,0-.8-.2-1.1-8.9.4-17.9.7-27,1,0,0,0,.1,0,.2v20.1h0Z"/>
      <path class="cls-2" d="M415,361.3c0-1.6-1.1-3-2.6-3.4-7.9.5-15.8.9-23.8,1.3-.5.6-.7,1.3-.7,2.1v20.1c0,2,1.6,3.6,3.6,3.6h7.5c6.9-8,12.2-16,16.2-23.1v-.6h0Z"/>
      <path class="cls-2" d="M168.3,400.1c0-2-1.6-3.6-3.6-3.6h-20.1c-2,0-3.6,1.6-3.6,3.6v16.4c6.5,2,15.1,3.9,26.8,5.4.3-.5.4-1.1.4-1.7v-20.1h0Z"/>
      <rect class="cls-2" x="190.4" y="396.6" width="27.2" height="27.2" rx="3.6" ry="3.6"/>
      <rect class="cls-2" x="239.8" y="396.6" width="27.2" height="27.2" rx="3.6" ry="3.6"/>
      <path class="cls-2" d="M312.8,423.8c.7,0,1.4-.2,2-.6-2.3.2-4.6.4-7,.6h5.1,0Z"/>
      <path class="cls-2" d="M316.3,420.2v-20.1c0-2-1.6-3.6-3.6-3.6h-20.1c-2,0-3.6,1.6-3.6,3.6v20.1c0,2,1.6,3.6,3.6,3.6h15c2.5-.2,4.8-.4,7-.6.9-.6,1.6-1.7,1.6-3Z"/>
      <path class="cls-2" d="M362.1,396.6h-20.1c-2,0-3.6,1.6-3.6,3.6v19.9c13.4-2.4,21.5-5.3,27.2-8.1v-11.8c0-2-1.6-3.6-3.6-3.6Z"/>
      <path class="cls-2" d="M91.8,361.3c0-1.6,1.1-3,2.6-3.4,7.9.5,15.8.9,23.8,1.3.4.6.7,1.3.7,2.1v20.1c0,2-1.6,3.6-3.6,3.6h-7.5c-6.9-8-12.2-16-16.2-23.1v-.6Z"/>
    </g>
  </g>
</svg>